<?xml version="1.0" encoding="utf-8"?>
<!-- Generator: Adobe Illustrator 26.0.3, SVG Export Plug-In . SVG Version: 6.00 Build 0)  -->
<svg version="1.1" id="Layer_1" xmlns="http://www.w3.org/2000/svg" xmlns:xlink="http://www.w3.org/1999/xlink" x="0px" y="0px"
	 viewBox="0 0 1000 1000" style="enable-background:new 0 0 1000 1000;" xml:space="preserve">
<style type="text/css">
	.st0{fill:#FFFFFF;stroke:#000000;stroke-miterlimit:10;}
</style>
<path class="st0" d="M386.2,237.2l134.4-49.9 M520.6,187.3l112.5-11.9 M520.6,187.3l85.5-30 M606.1,157.3l57.6-26.8 M663.7,130.4
	l-31.5,45.2 M662.4,130.5L545.1,154 M545.1,154l-75.5,31.1 M469.6,185.1l51,2.2 M386.2,237.2l-10,41.1 M376.2,278.3l183.7-95.2
	 M487.3,234.8l3.9-16 M564.3,197.3l-77,37.5 M564.3,197.3l67.9-21.7 M487.3,234.8l-66.7,46.4 M419.7,281.1l-42.7-3.3 M386.2,237.2
	l83.4-52.1 M456.4,211.1l32.8,7.6 M377,216l-45.8-1.1 M331.1,214.9l17.6-39.6 M348.7,175.4l93.2-56.6 M441.9,118.8l118-40.4
	 M559.8,78.4l94.5-12.8 M654.4,65.6l24.1,14.9 M678.4,80.4l-118.6-2 M559.8,78.4l-147,74.6 M412.8,153l29-34.2 M412.8,153
	l-81.7,61.9 M331.1,214.9l155.2-80.9 M486.3,134.1l73.5-55.7 M486.3,134.1L573.2,93 M573.2,93l-13.3-14.6 M573.2,93l105.3-12.6
	 M697.4,93l-19-12.6 M697.4,93l-158.7,25.8 M538.7,118.8L573.2,93 M538.7,118.8l-82.3,44 M456.4,162.8l32.8-30.9 M456.4,162.8
	l-80.2,52.7 M338.7,161l103.2-68 M441.9,93l86.8-29.3 M528.6,63.7l88.3-17.5 M616.9,46.2l-43.8-15.5 M573.2,30.7l-99.1,38
	 M528.6,63.7l-54.6,5 M474.1,68.7L441.9,93 M474.1,68.7l-121.6,50.1 M352.5,118.8l-57.7,48 M338.7,161l-43.9,5.8 M338.7,162.8
	l13.8-44 M573.2,30.7l-13.6-6.3 M559.5,24.4L435,51.9 M435,51.9l-82.6,66.9 M351,118.8l-34.3-6.1 M316.7,112.7l72.2-41.6 M435,51.9
	l41.7,3 M476.7,55l96-24.2 M476.7,55l-124.3,63.8 M388.9,71.1L435,51.9 M316.7,112.7l-11.1,7.8 M294.8,166.8l10.9-46.3 M507.1,10.7
	L405.8,38.5 M405.8,38.5l-109.1,74.2 M296.7,112.7L358,44.4 M358,44.4l47.7-5.9 M405.8,38.5L430.6,12 M430.6,12l55.8-5.2 M486.3,6.8
	l20.8,3.8 M430.6,12l-61,15.6 M369.6,27.5L358,44.4 M358,44.4L251.2,98.6 M251.2,98.6l-31.4,7.3 M219.8,105.9L301.1,55 M301.1,55
	L358,44.4 M369.6,27.5L301.1,55 M235.5,137.6l120.9-91.4 M235.5,137.6l61.2-24.9 M235.5,137.6l17.6-40 M235.5,137.6l-41.7,77.3
	 M296.7,112.7l9,7.8 M305.6,120.5l-111.9,94.5 M193.7,214.9l101-48.2 M251.2,98.6l-85.3,82.7 M165.9,181.3l-30,81.7 M135.9,263.1
	l57.9-48.1 M193.7,214.9l-30.5,3.8 M163.3,218.7l89.8-121.1 M165.9,181.3l-2.3,37 M163.6,218.3l-26.9,44.1 M219.8,105.9l-69.7,66.4
	 M150.2,172.3l15.8,9 M150.2,172.3L94.4,292.6 M94.4,292.6l41.5-29.6 M338.7,162.8l-37.5,39.3 M301.1,202.1l47.5-26.7 M348.7,175.4
	l-10-14.3 M181.8,262.4l119.3-60.3 M181.8,262.4l11.9-47.4 M294.8,166.8l-112.9,95.6 M181.8,262.4l78.6-4.4 M260.5,257.9l70.7-43
	 M348.7,175.4l-88.2,82.6 M260.5,257.9L211,331.1 M331.1,214.9L211,331.1 M376.2,215.5L211,331.1 M377,216l-71.3,87.2 M305.6,303.2
	l80.6-66.1 M376.2,215.5l10,21.7 M305.6,303.2L211,331.1 M305.6,303.2l71.3-25.4 M305.6,303.2l-16,65.8 M289.6,369.1l87.4-91.2
	 M377,277.9l-33.3,80.9 M343.7,358.8l77-77.6 M289.6,369.1l54.1-10.3 M305.6,303.2l-134,102.6 M171.7,405.9l-76,2.9 M211,331.1
	L95.7,408.8 M94.4,408.8l211.3-105.6 M260.5,257.9l-104.7,81.4 M155.8,339.3l-60.1,69.5 M95.7,408.8l164.8-150.9 M46.2,356
	l135.6-93.7 M46.2,356l48.1-63.4 M135.9,263.1l45.9-0.7 M154.6,339.3c0.9,0.3,27.2-77,27.2-77 M154.6,339.3L46.2,356 M171.7,405.9
	l117.9-36.8 M150.2,172.3L74.9,277.9 M46.2,356l28.7-78.2 M46.2,356l-23.5,83.4 M153.3,339.3l-95.2,58.4 M58.1,397.7l36.2,11.1
	 M94.4,408.8l-75.7,58.5 M18.6,467.3l4-27.9 M22.7,439.4l35.5-41.7 M58.1,397.7L46.2,356 M18.6,467.3l79.7,10.4 M98.3,477.7l-21-30
	 M77.3,447.7l-56.6,18.1 M77.3,447.7l94.4-41.8 M98.3,477.7l137.2-53.9 M289.6,369.1l-54.1,54.8 M235.5,423.8l-63.8-18 M235.5,423.8
	l-29.4,48.5 M98.3,477.7l107.8-7.1 M206.1,470.7l139.5-32.6 M343.7,438.1l91.4-43.8 M435,394.2l-126.9,21.9 M308.2,416.2l-102,54.5
	 M308.2,416.2l35.5-57.4 M343.7,358.8 M206.1,472.3l137.6-113.5 M341.3,359.2L435,344 M435,344l54.2,16 M489.2,360l-128.9,14.1
	 M309,414.9l51.4-40.8 M343.7,358.8l16.6,15.3 M435,394.2l54.2-34.2 M489.2,360l21.6,20.6 M510.9,380.6L435,394.2 M780.9,510.1
	l-30.9,140 M750,650.1l-50.9,101.1 M750,650.1l-21,88.1 M728.9,738.2l-8.7,63 M699.3,750.3l20.9,50.9 M720.9,800l43.8-111.3
	 M764.7,688.7l14.8-80.3 M779.5,608.4L750,650.1 M780.9,510.1l-29.1-30.7 M751.7,479.4l-19.5,205.9 M739.5,608.3l-11.4-11.9
	 M728.1,596.4l-10.2,85 M699.3,750.3l18.6-68.8 M725.3,515.2l2.9,81.2 M725.8,514.4l25.9-34.1 M780.9,510.1l-1.4,98.3 M764.7,583.2
	l-24.2,23.5 M803.6,513.8l25.8-37.9 M829.4,475.8l23.8,36.2 M853.2,512l-2.9,109 M850.2,621l-30,121 M779.9,828.5l40.4-86.4
	 M779.9,828.5l-25.5,12.2 M754.3,840.7l65.9-98.6 M820.3,742.1l16.9-164 M837.2,578.1l13.1,42.9 M837.2,578.1l-7.8-102.2
	 M813.3,650.1l16.1-174.3 M813.3,650.1l7,91.9 M813.3,650.1l-12.5,95.3 M800.8,745.4l19.5-3.3 M800.8,745.4l-46.4,95.3 M754.3,840.7
	l-20.9,9.1 M797.8,702.4l-64.3,147.4 M800.8,745.4l-3-42.9 M797.8,702.4l7.6-93 M813.6,653.7l-8.2-44.3 M805.4,609.4l-0.8-96
	 M870.6,511.4l1.3,123.6 M871.9,635l-22.4,88.8 M849.5,723.8l-33.1,83.7 M816.4,807.5l36.7-28.4 M853.1,779.1l21.7-103.9
	 M874.9,675.2l-25.3,48.6 M874.9,675.2l-3-40.3 M874.9,675.2l23.8-129.4 M898.7,545.9l-9.1-74.5 M889.6,471.4l-19,40 M898.7,545.9
	l-29.5-35.4 M865.9,771.1l-12.7,8 M865.9,771.1l44.3-119.6 M910.1,651.5l-11.5-105.6 M899.5,544.6l23.7-25.5 M923.2,519.1l-4.2,83.2
	 M910.1,651.5L885,684.9 M885,684.9l-31.6,93.9 M885,684.9l13.7-139 M919,602.3l-8.9,49.2 M922.6,505.6l0.5,13.5 M922.6,505.6
	l-33-34.2 M905.8,734.4l31.5-100.3 M937.3,634.2L934,502.3 M934,502.3l24.2,88.6 M958.2,590.8l-20.9,43.4 M946.1,669.3l-8.8-35.2
	 M946.1,669.3L920.3,719 M920.3,719l-14.5,15.4 M946.1,669.3l20-59.7 M966.1,609.6l-7.9-18.8 M958.2,590.8l12.3-119.2 M970.5,471.6
	l10.9-30.3 M981.4,441.3l-1.2,95.9 M980.1,537.2l-22,53.6 M966.1,609.6l14-72.4 M946.2,437.3l11.3,151.1 M934,502.3l12.2-64.9
	 M946.2,437.3l24.1,36.4 M946.2,437.3l-42.4-77 M934,502.3l-11.4,3.3 M922.6,505.6l-18.8-145.2 M903.8,360.4l-14.2,111 M970.5,471.6
	l-23.4-116.5 M947.1,355.2l-52.4-69.5 M894.7,285.7l9.1,74.7 M903.8,360.4l13.3-27.7 M917.1,332.7l53.2,141.1 M947.1,355.2l-29.8-22
	 M894.8,286.7l22.5,46.5 M981.4,441.3l-18.1-94.5 M963.3,346.8l-16.1,8.4 M963.3,346.8l-71-112.1 M892.3,234.7l2.4,50.9
	 M869.1,510.4l-12.7-52.9 M853.2,512l3.3-54.4 M853.2,512l17.5-0.6 M856.4,457.6l14-132.9 M870.4,324.6l33.4,35.7 M889.6,471.4
	l-19.2-146.7 M870.4,324.6l-38.9,68.5 M831.5,393.1l-2.1,82.7 M853.2,512l-21.6-118.9 M831.5,393.1l-34.7-81.2 M829.4,475.8
	l-32.6-163.9 M796.8,311.9l7.7,201.5 M769,406.6l34.7,107.2 M769,406.6l11.9,103.5 M780.9,510.1l23.7,3.3 M769,406.6l27.9-94.6
	 M751.6,480.3l17.3-73.7 M769,406.6l-46.6-49.1 M722.3,357.4l29.3,122.8 M751.6,480.3l-50-71.8 M701.7,408.5l23.6,106.8
	 M701.7,408.5l20.6-51 M769,406.6l-13.7-168.2 M755.3,238.4l38.7-65.5 M796.8,311.9l-2.9-139 M794.7,171.8L769,406.6 M819.8,261
	l11.7,132.1 M819.8,261l-25.9-88.1 M793.9,172.9l37.6,220.2 M870.4,324.6l-5.3-164.7 M865.1,159.9l27.2,74.8 M894.7,285.7l-24.3,39
	 M820.5,260.1c-0.7,0.6,49.9,64.6,49.9,64.6 M820.5,260.1l44.7-100.1 M755.3,238.4l-32.9,119.1 M963.3,346.8l-48-120.4 M915.3,226.4
	l-50.2-66.5 M865.1,159.9l-57.3-65 M821.1,259l2.5-111.7 M823.6,147.4l-28.9,24.4 M794.7,171.8l-8.2-95.3 M786.5,76.5L807.8,95
	 M807.8,95l15.8,52.4 M823.6,147.4l41.5,12.6 M786.5,76.5l-51.9,61.4 M734.6,137.8l36.6-1.4 M771.2,136.4L786.7,79 M771.2,136.4
	l-16,102 M734.6,137.8l-29,144.5 M705.6,282.3l16.7,75.2 M705.6,282.3l49.7-43.9 M705.6,282.3l-24.8-51 M682.1,232.2l52.4-94.4
	 M682.1,232.2L634,367.1 M635,365.5l-12.6,100.5 M622.4,466.1l50.3-118.5 M672.7,347.5l9.5-115.3 M672.7,347.5l29,60.9 M701.7,408.5
	 M701.7,408.5l-20.9-177.1 M702.6,406.2l-38,87 M621.8,530.2l42.8-36.9 M621.8,530.2l58-116 M679.8,414.2l-6.5-65.3 M701.7,408.5
	l-21.9,5.7 M622.4,466.1l-0.6,64.1 M621.8,530.2l-29,7 M592.8,537.2l29.6-71.1 M351.9,733.5L246.8,636 M185.5,540.8l61.3,95.1
	 M181.5,573.2l65.3,62.8 M181.5,573.2l-49.9-39.4 M131.6,533.8l54.5,7.8 M132.3,534.9l73.8,94.2 M206.1,629.1l61.7,53.4 M246.8,636
	l21,46.6 M351.9,733.5l41.2-9.5 M393.1,724L225.4,602.8 M288.1,648.1l16.1-3.8 M304.2,644.3l-68.1-51.9 M236.1,592.4l-49.9-50.9
	 M304.2,644.3l71.4,38.6 M392.4,723.4L376,683.8 M351.9,733.5l-84.1-51 M297,682.6l-8-32.7 M337.1,751.3l19.7,41.4 M313.6,794.9
	l43.2-2.1 M313.6,794.9l-92.5-57.8 M221.1,737.1L131.9,650 M131.9,650l-54-78.6 M77.9,571.3l2.4-28.2 M131.9,650L80.3,543.1
	 M131.9,650l132.8,97.7 M264.7,747.6l-43.6-10.5 M264.7,747.6l92.1,45.1 M356.8,792.7L214.7,690.5 M131.9,650l82.8,40.6
	 M214.7,690.5l-75.8-59.1 M138.9,631.5l-7,18.5 M138.9,631.5l-58.6-88.3 M83,520.5l-2.7,22.6 M83,520.5l94.5,130.1 M177.5,650.6
	l-38.5-19.2 M177.5,650.6l76.4,53.7 M253.8,704.3l-42.4-15.4 M253.8,704.3l83.2,47.9 M198.1,748.7l107.2,61.5 M198.1,748.7
	l-65.2-64.3 M132.8,684.4l-55.4-71 M77.5,613.5l5.9,46 M83.3,659.5l78.5,71.4 M161.9,730.9l-29-46.5 M161.9,730.9l36.2,17.8
	 M161.9,730.9l99.5,86.1 M261.3,816.9l68.8,29.9 M330.2,846.9l-24.9-36.6 M306.8,809.4l-45.5,7.5 M83.3,659.5l0.5,15 M83.8,674.5
	l80.6,98.8 M164.5,773.3l96.9,43.6 M262,818.3l10,33.4 M272,851.6l-69.6-45.7 M164.5,773.3l-16.1-38.6 M148.4,734.7l-64.9-74.9
	 M148.4,734.7l112.9,82.2 M202.4,805.9l-37.9-32.6 M283.9,858l-11.9-6.4 M283.9,858l46.2-11.1 M95.2,727.5l70.5,78 M165.6,805.5
	l115.4,64 M281,869.5l-88.6-24.1 M165.6,805.5l26.8,40 M130.8,795.3l34.8,10.2 M130.8,795.3l-29.7-47.5 M101.1,747.8l-5.9-20.3
	 M130.8,795.3l41.3,47.5 M172.2,842.8l20.2,2.7 M192.4,845.5l96.5,71 M309.5,941.2l-20.6-24.7 M309.5,941.2l-82.1-49.7 M227.5,891.6
	l-35.1-46.1 M172.2,842.8l55.3,48.8 M194.8,846.1l136,66.8 M330.8,912.9L281,869.5 M330.8,912.9l-43.6,2.3 M330.8,912.9l87.8,2.5
	 M281,869.5l2.9-11.5 M283.9,858l134.7,57.4 M418.6,915.4l-88.5-68.5 M288.9,916.5l112.3,38.9 M401.2,955.4l86.5-10 M487.7,945.4
	l-69-30 M418.6,915.4l17.1,25.5 M435.7,940.9l-148.5-25.7 M435.2,940.8l-34.1,14.6 M435.2,940.8l51.4,4.2 M309.5,941.2l90.6,32.3
	 M400.2,973.5l1-18.2 M400.2,973.5l132.6-4.4 M532.8,969.2l-45.1-23.8 M358.8,825.3l-52-15.8 M358.8,825.3l-45.3-30.4 M313.6,794.9
	l-8.3,15.4 M358.8,825.3l107.5,79.4 M466.4,904.7l-47.7,10.7 M330.2,846.9l136.2,57.8 M466.4,904.7L427,836.5 M356.8,792.7
	l70.2,43.7 M313.6,794.9L427,836.5 M427,836.5l87.6,11.3 M356.8,792.7l157.8,55 M514.6,847.7L337,752.2 M337.1,751.3l110,24.4
	 M447.1,775.7l-95.3-42.2 M351.9,733.5L337,752.2 M447.1,775.7l67.5,72 M447.1,775.7l-54.8-52.3 M513.1,760.4l-66,15.3 M513.1,760.4
	l-120.8-37 M392.4,723.4l87.2-6.7 M479.6,716.8l-104-33.8 M513.1,760.4l-33.5-43.7 M447.1,775.7l151.9,73.4 M635.9,915.7l-36.8-66.5
	 M514.6,847.7l121.3,67.9 M636.5,916.9L447.1,775.7 M427,836.5l119.8,56.9 M635.9,915.7l-89.1-22.4 M427,836.5l208.9,79.2
	 M466.4,904.7l144.7,78.9 M532.8,969.2l78.3,14.5 M487.7,945.4l-21.3-40.7 M547.3,894.4c-0.1-0.9-81,10.3-81,10.3 M547.3,894.4
	l63.7,89.2 M599.1,849.2l-86-88.7 M400.2,973.5l128.1,19.6 M528.3,993.2l82.7-9.6 M611.1,983.6l85.1-16.5 M642.9,954.2l-95-58.7
	 M642.9,954.2l-6.4-37.3 M636.5,916.9l86.3,41.3 M722.8,958.1l-26.7,9 M642.9,954.2l53.2,12.9 M642.9,954.2l-31.9,29.4 M722.8,958.1
	l-26.6-75.8 M696.3,882.3l-17.3,32.3 M678.9,914.6l41.6,42.4 M678.9,914.6l-79.8-65.4 M696.3,882.3l-109.9-98.2 M513.1,760.4
	l73.3,23.7 M586.4,784.1l12.7,65.1 M586.4,784.1l56.5,4.4 M641.4,789.2l54.8,93.1 M641.4,789.2l-91.9-109.9 M470.1,619.2l80.3,61.8
	 M470.1,619.2l76.7,103.4 M641.4,789.2l-94.6-66.6 M546.8,722.6l-67.2-5.9 M479.6,716.8 M479.6,716.8l163.3,71.7 M481.1,718.7
	l-55.8-76.9 M425.3,641.8l-10.1-55.6 M415.2,586.2L485.8,695 M485.8,695l59.5,27.5 M479.6,716.8l6.2-21.7 M470.1,619.2l-55-33
	 M415.2,586.2l8.7-28.6 M423.8,557.6l46.3,61.6"/>
</svg>
