<?xml version="1.0" encoding="utf-8"?>
<!-- Generator: Adobe Illustrator 26.0.3, SVG Export Plug-In . SVG Version: 6.00 Build 0)  -->
<svg version="1.1" id="Layer_1" xmlns="http://www.w3.org/2000/svg" xmlns:xlink="http://www.w3.org/1999/xlink" x="0px" y="0px"
	 viewBox="0 0 1000 1000" style="enable-background:new 0 0 1000 1000;" xml:space="preserve">
<style type="text/css">
	.st0{fill:none;stroke:#181716;stroke-miterlimit:10;}
</style>
<path class="st1" d="M660.9,127.2l-31.1,44.7 M694.3,90.1L651,63 M503.9,9 M503.9,9L361.1,27.5 M297,107.4l61.2-81.1 M306.3,117.3
	l32.7,40.2 M306.3,117.3l167.6-38 M553.9,22.5l-80.1,56.8 M376.1,216.2l-27.2-44.5 M510.4,216.2 M510.4,216.2 M350.6,170.8
	l171.3-39.6 M651,63l-129.1,68.2 M510.4,216.2l-125.1,17.2 M660.9,127.2l-150.5,89 M385.3,233.4l19.5,56.1 M303.2,268l82.1-34.6
	 M339,157.5l-70,58.7 M297,107.4l-67.7,50.1l77-40.2 M179.1,141.3L297,107.4 M339,157.5l-109.7,0 M303.2,268l101.6,21.5
	 M345.5,351.4L303.2,268 M345.5,351.4L303.2,268 M236.4,388.3l3.9,79.9 M229.3,157.5L80.1,268 M133.6,250.4L269,216.2 M169.5,281.3
	L303.2,268 M201.3,324l144.2,27.4 M236.4,388.3l113,43 M423.5,394.1l86.1-19.1 M440.4,339.1l-91,92.2 M421.7,394.1l77.7-34.1
	 M133.6,250.4l-8.3,106.3 M125.4,356.7l111,31.6 M59.3,317.5L80.1,268 M68.4,386.2l75.2,89.1 M68.4,386.2L80.1,268 M125.4,356.7
	L143,477 M694.3,90.1l-172.4,41.1 M651,63L487,96.5l34.8,34.6 M521.9,131.2l-145.8,85 M348.9,171.7L487,96.5 M348.9,171.7l-9.9-14.2
	 M269,216.2l79.9-44.5 M269,216.2h107.1 M376.1,216.2L303.2,268 M376.1,216.2l9.2,17.2 M376.1,216.2 M404.8,289.5l-59.3,61.9
	 M510.4,216.2l-105.6,73.4 M385.3,233.4l118.6-69.7 M510.4,216.2l-6.4-52.4 M503.9,163.7l6.4,52.4 M629.8,171.9l-119.5,44.3
	 M503.9,163.7l157-36.5 M503.9,163.7 M614.6,43.8L473.8,79.3 M553.9,22.5l60.6,21.3 M432.5,50.1l121.4-27.6 M473.8,79.3l-41.3-29.2
	 M306.3,117.3l126.3-67.2 M339,157.5l134.8-78.2 M481.7,4.2L358.2,26.3 M503.9,9l-22.2-4.8 M401.6,43.8L503.9,9 M358.2,26.3
	L242.3,88.7 M401.6,43.8l-43.4-17.5 M401.6,43.8L297,107.4 M242.3,88.7l54.7,18.7 M306.3,117.3l-9.3-9.9 M179.1,141.3l63.3-52.6
	 M229.3,157.5l-50.2-16.2 M269,216.2l-39.7-58.6 M303.2,268L269,216.2 M179.1,141.3L80.1,268 M229.3,157.5l-95.7,92.9 M269,216.2
	l-99.5,65.1 M303.2,268 M201.3,324L303.2,268 M236.4,388.3l109.1-36.9 M345.5,351.4l94.9-12.3 M423.5,394.1l-74,37.2 M345.5,351.4
	 M349.4,431.3l-3.9-79.9 M440.4,339.1l-16.9,55 M440.4,339.1l59,20.9 M499.3,359.9l10.2,15 M236.4,389.5L201.3,324 M169.5,281.3
	l31.8,42.7 M169.5,281.3l-35.9-30.9 M133.6,250.4L80.1,268 M125.4,356.7l44.2-75.4 M201.3,324l-76,32.7 M349.4,431.3l-109.1,36.9
	 M125.4,356.7l114.9,111.5 M143.6,475.3l96.7-7.1 M68.4,386.2l57-29.5 M23.1,461.1l120.4,14.2 M23.1,461.1l45.2-74.9 M28,422.1
	l-4.9,39 M59.3,317.5L28,422.1 M59.3,317.5L23.1,461.1 M80.1,268l45.2,88.7 M59.3,317.5l9.1,68.6 M720.1,799.7l-20.8-50.3
	 M779.5,826.1l-46.3,21.7 M904.4,731.7 M904.4,731.7l61.7-130.1 M933.7,504.4l35.1,95.3 M920.3,506.8l-51.5,5.8 M861.6,668.3
	l58.7-161.5 M866,766.4l-4.4-98.1 M799.4,512l52.1,1.2 M726.8,625 M726.8,625 M851.4,515.2L792,680.6 M792,680.6l-12.5,145.5
	 M779.9,510.5L726.8,625 M720.1,799.7l6.6-174.7 M779.9,510.5l-57.7-14 M795.3,422.7l-15.3,87.8 M868.8,512.6L857.4,422
	 M933.7,504.4l-5.5-84.1l-7.9,86.5 M933.7,504.4L969,386.9 M928.2,420.3l-59.3,92.3 M795.3,422.7l-73.1,73.8 M702.3,413.2l93,9.6
	 M702.3,413.2l93,9.6 M730.3,301.4l-69.3-40 M928.2,420.3L916,235.1 M901.8,289.6L857.4,422 M856.4,303.1l-61.1,119.6 M803.3,306.7
	l-101,106.4 M730.3,301.4L633,373.2 M593.7,538.3l30.5-82.7 M633,373.2l28.3,126.4 M625.2,454.1l-13.3,83.8 M901.8,289.6l-84.9-64.5
	 M816.9,225.1l-86.7,76.3 M885.6,190.8l30.4,44.4 M823,161.3l-115.6,15 M916,235.1l-93-73.9 M816.9,225.1l-110.7-50.3 M733.2,847.8
	L792,680.6 M779.5,826.1l60.5-156l-48,10.5 M792,680.6l7.4-168.6 M851.5,513.3L840,670.1 M851.5,513.3l17.3-0.6 M857.4,422
	l-5.8,91.2 M857.4,422l-57.9,90 M799.4,512l-4.1-89.3 M779.9,510.5l19.5,1.6 M799.4,512 M702.3,413.2l19.9,83.3 M726.8,625
	l-4.5-128.5 M779.9,510.5l-5.6,137.5 M726.8,625l47.6,23 M774.3,647.9l-47.6-23 M699.3,749.4L726.8,625 M774.3,647.9l-54.2,151.8
	 M774.3,647.9 M815.3,805.9l46.3-137.6 M866,766.4l-50.7,39.5 M908.5,649.4l-42.5,117 M861.6,668.3l46.9-18.9 M920.3,506.8
	l-11.8,142.5 M868.8,512.6l-7.2,155.7 M968.8,599.7l-48.3,115.8 M904.4,731.7l16-16.1 M930.6,626.8l-26.2,104.9 M968.8,599.7
	L979,468.5 M968.8,599.7l-38.2,27.1 M933.7,504.4l-3.1,122.4 M979,468.5l-45.3,35.8 M920.3,506.8l13.3-2.4 M969,386.9l10,81.6
	 M928.2,420.3l40.8-33.4 M857.4,422l70.8-1.7 M795.3,422.7l62.1-0.7 M916,235.1l53,151.8 M901.8,289.6l26.4,130.7 M857.4,422
	l-0.9-118.9 M795.3,422.7 M803.3,306.7l-8,116 M730.3,301.4l-28,111.8 M702.3,413.2l-41,86.4 M624.2,455.6l8.8-82.4 M702.3,413.2
	 M702.3,413.2l-69.3-40 M661.3,499.6l-37.1-44 M611.8,537.9l49.5-38.3 M611.8,537.9l-18.1,0.5 M729.2,300.8l74.1,5.9 M856.4,303.1
	l-53.1,3.6 M856.4,303.1l45.4-13.5 M901.8,289.6l14.2-54.5 M816.9,225.1l39.5,78 M816.9,225.1l-13.6,81.6 M661,261.4l-28,111.8
	 M661,261.4l156-36.3 M707.4,176.3L661,261.4 M823,161.3l-6.1,63.9 M707.4,176.3l77.1-93.6 M784.5,82.7l38.5,78.6 M814.6,107.9
	l-30.2-25.2 M885.6,190.8l-71-82.8 M784.5,82.7l101.1,108.1 M916,235.1l-99.1-10 M823,161.3l62.6,29.5 M132.4,541.9l53.9,7.7
	 M79.5,579.6l4.8-50.9 M97.3,735.2 M97.3,735.2l80.6,119.3 M278.1,876l-99.9-18.2 M282.8,863.2l21.2-47.3 M282.8,863.2L173.6,730.6
	 M86.9,684.5l86.7,46.1 M339.8,756.5l-27.5,44.3 M279.5,636.5 M279.5,636.5 M310.7,799.6L198.4,664.4 M79.5,579.6l118.9,84.7
	 M351.1,740.5l-71.5-104 M132.4,541.9l147.1,94.6 M351.1,740.5l41.4-42.6 M418.8,798.3l-67.8-57.8 M304,815.9l83.9,36.2 M278.1,876
	l75.2,38l-70.5-50.7 M361.3,966.1L278.1,876 M304,815.9l49.3,98 M418.8,798.3l-26.3-100.4 M474.4,723.1l-55.6,75.2 M474.4,723.1
	l-55.6,75.2 M556.4,804l69.6-39.3 M353.3,914L519,997.7 M479.3,957.8l-91.4-105.6 M490.7,911.8l-71.9-113.5 M474.4,723.1l40.3,141.1
	 M556.4,804L544,683.7 M477.5,634.3l-55.7-68.3 M544,683.7l-123.2-39.9 M478.3,635.9L413,581.8 M479.3,957.8l98.7-40.3 M556.4,804
	L578,917.4 M572.6,994l-53.7,3.6 M629.9,955.1l45.9-107.2 M519,997.7l110.9-42.5 M578,917.4l99.6-69.7 M84.3,528.7l114.1,135.6
	 M79.5,579.6L183.1,711l15.3-46.7 M339.8,756.5l-141.4-92.1 M312.3,800.7L183.1,711 M312.3,800.7l-8.3,15.2 M312.3,800.7l75.6,51.4
	 M387.9,852.1l-48.1-95.7 M339.8,756.5l79,41.9 M339.8,756.5l11.2-16 M339.8,756.5 M392.5,697.9l81.9,25.2 M392.5,697.9l-112.9-61.4
	 M351.1,740.5l-115.5-74.7 M279.5,636.5l-44,29.3 M235.6,665.7l44-29.3 M186.4,549.6l93.2,86.9 M235.6,665.7L132.4,541.9
	 M235.6,665.7 M78.7,620.7l94.9,109.8 M86.9,684.5l-8.2-63.7 M86.9,684.5l79.1,96.1 M173.6,730.6l-7.5,50 M166.1,780.6l116.7,82.7
	 M173.6,730.6L304,815.9 M103,757.2l75.2,100.5 M97.3,735.2l5.7,22 M174.3,811.1l-77-75.9 M286,933.2l-107.8-75.5 M174.3,811.1
	l3.9,46.6 M278.1,876l-103.8-64.9 M278.1,876l7.8,57.2 M282.8,863.2l-4.7,12.7 M361.3,966.1L286,933.2 M353.3,914l8,52.1
	 M387.9,852.1L353.3,914 M418.8,798.3l-30.9,53.8 M361.3,966.1L519,997.7 M479.3,957.8L353.3,914 M387.9,852.1l102.9,59.7
	 M418.8,798.3 M514.7,864.2l-95.8-65.9 M474.4,723.1l82,80.9 M420.8,643.9l53.6,79.2 M477.5,634.3l66.5,49.5 M474.4,723.1
	 M544,683.7l-69.6,39.3 M420.8,643.9l56.8-9.6 M413,581.8l7.8,62.1 M421.8,565.9l-8.8,15.8 M557.4,803.4l-42.8,60.8 M490.7,911.8
	l23.9-47.6 M490.7,911.8l-11.5,46 M479.3,957.8l39.7,39.9 M578,917.4l-87.2-5.6 M514.7,864.2l63.3,53.2 M626,764.7l-82-80.9
	 M578,917.4l48-152.7 M675.7,847.9L626,764.7 M578,917.4l51.9,37.7 M717.1,961.9l-41.4-114 M717.1,961.9l-87.3-6.8 M680.1,975
	l37-13.1 M572.6,994l107.4-19 M572.6,994l144.5-32.1 M519,997.7l59-80.2 M629.9,955.1L572.6,994"/>
</svg>
