<svg width="587" height="609" viewBox="0 0 587 609" fill="none" xmlns="http://www.w3.org/2000/svg">
<path d="M26.5954 183.891C53.1908 124.241 96.5033 76.7481 148.174 43.3133C199.465 10.2584 252.656 1.13983 282.671 0L282.674 0.000590622C287.612 0.760274 292.55 1.52006 297.488 2.65957C250.756 13.2979 206.684 33.8147 169.07 63.4501C170.02 64.4 170.97 65.4448 171.92 66.4897C172.87 67.5344 173.82 68.5794 174.769 69.5292C220.741 36.4743 272.412 16.3375 329.402 11.0183C341.56 14.8177 352.958 19.377 364.357 24.3162C303.187 31.1552 242.777 55.8513 194.906 94.2254C195.855 95.7451 196.9 97.1699 197.945 98.5947C198.99 100.019 200.035 101.444 200.985 102.964C252.656 63.0702 321.424 39.1339 387.152 36.0944C387.152 36.4743 387.532 36.4743 387.532 36.4743C388.378 36.897 390.046 37.9073 392.144 39.1785L392.146 39.1793C393.819 40.1934 395.767 41.3734 397.79 42.5534C403.109 45.9728 408.428 49.3923 413.368 52.8118C408.316 53.0524 400.673 54.5118 393.721 55.8393L393.711 55.8414L393.705 55.8425C389.684 56.6103 385.895 57.3335 382.973 57.751C322.184 65.7298 264.813 90.8059 217.702 130.32C219.601 133.739 221.501 137.159 223.401 140.958C268.233 106.763 321.044 84.7268 376.894 77.128C379.553 76.938 382.212 76.6531 384.871 76.3682C387.531 76.0832 390.191 75.7982 392.851 75.6083C391.901 76.9378 390.952 78.1724 390.002 79.407L390 79.4092C389.051 80.6435 388.101 81.8778 387.152 83.207C386.392 83.9669 385.632 85.1068 384.873 86.2466C381.073 91.9457 377.654 97.2649 374.234 102.964C371.579 103.723 368.545 104.481 365.51 105.24L365.496 105.244C318.764 118.162 274.692 141.338 237.839 173.253C223.401 185.791 210.103 199.469 197.945 214.667C200.128 214.468 203.727 213.533 208.34 212.334C230.231 206.645 274.978 195.015 299.768 227.965C284.19 229.484 268.993 233.284 254.556 238.603C247.716 241.262 240.878 243.922 234.419 247.342C233.087 248.068 231.793 248.757 230.526 249.431L230.523 249.432C227.816 250.872 225.228 252.248 222.641 253.801C218.312 256.11 213.763 258.199 209.328 260.237L209.326 260.238L209.322 260.239L209.319 260.241L209.318 260.241L209.313 260.243L207.455 261.098C206.686 261.452 205.922 261.806 205.164 262.159C189.587 268.998 173.63 274.697 157.293 278.877C143.995 282.296 130.317 284.956 116.64 286.855H115.5C105.21 288.227 95.2298 288.98 85 289.393V332.672C88.048 333.073 91.0331 333.363 93.9913 333.651L93.9991 333.652C96.2372 333.87 98.4602 334.087 100.683 334.348C102.962 336.628 104.862 338.907 106.762 341.187C139.056 377.281 179.329 406.537 224.541 425.154C242.018 432.373 260.255 438.072 279.252 442.251C278.121 440.389 275.674 437.56 272.528 433.921C257.699 416.776 227.326 381.657 245.817 344.986C254.556 357.904 264.435 370.063 275.832 380.701C281.152 385.64 286.851 390.579 292.55 394.759C293.672 395.544 294.761 396.33 295.836 397.105L295.837 397.106C298.403 398.957 300.891 400.751 303.568 402.358C308.887 406.157 313.825 409.956 318.765 414.136C331.683 425.154 344.22 436.932 355.238 449.47C364.348 459.719 373.078 470.725 380.672 482.112L417.157 467.108C416.781 466.264 416.406 465.424 416.03 464.583L416.027 464.576C415.141 462.594 414.256 460.613 413.37 458.589C413.618 457.928 413.866 457.286 414.109 456.654L414.111 456.65C414.989 454.373 415.816 452.228 416.41 449.85C431.227 403.877 435.786 354.485 429.328 305.852C426.668 287.235 422.489 268.238 416.41 250.001C415.464 251.893 414.361 255.228 412.952 259.491C405.871 280.911 391.053 325.734 349.542 328.269C356.38 314.591 361.7 299.773 365.119 284.576C367.019 277.737 368.158 270.518 368.918 263.299C369.678 258.74 370.058 254.56 370.058 250.001L370.312 247.954L370.315 247.928C370.994 242.463 371.706 236.734 372.718 231.004C375.377 214.666 379.176 197.949 384.496 181.991C389.055 169.074 393.993 156.156 400.073 143.617V143.238C400.291 143.019 400.384 142.926 400.423 142.814C400.453 142.732 400.453 142.639 400.453 142.478C405.392 132.219 410.711 122.341 416.79 112.842C416.979 112.465 417.261 112.087 417.544 111.71L417.55 111.702L417.555 111.695C417.838 111.318 418.121 110.94 418.31 110.563C424.009 101.444 430.467 92.3254 437.306 83.5868C437.685 83.0174 438.065 82.5428 438.444 82.0683L438.445 82.0673C438.826 81.5922 439.206 81.1173 439.586 80.5473C448.324 69.529 457.823 58.8906 468.841 48.2523C474.16 52.8116 479.479 57.3709 484.418 61.9302C499.615 75.988 513.673 91.9455 526.21 109.423C529.63 113.982 532.67 118.541 535.709 123.101C571.423 178.192 587 240.122 587 301.673C586.62 362.843 565.344 411.856 550.147 437.692L550.128 437.713C546.714 441.505 543.301 445.297 539.888 448.71C556.605 403.877 563.444 356.004 559.265 308.132C556.225 308.892 553.566 309.272 550.906 309.652C553.186 366.263 542.168 420.594 515.192 471.126C505.314 479.105 495.056 486.704 484.798 493.163C512.533 438.072 525.071 374.242 518.992 313.071C517.282 313.071 515.479 313.166 513.675 313.261L513.673 313.261C511.868 313.356 510.064 313.451 508.354 313.451C513.293 378.801 495.816 449.47 462.382 506.081C462.382 506.461 462.002 506.461 462.002 506.461C461.622 506.651 461.076 506.936 460.393 507.292C458.345 508.361 455.068 510.07 451.364 511.78L451.362 511.781L451.355 511.784L451.354 511.785C445.658 514.443 439.962 517.101 434.267 519.379C436.503 515.354 439.133 508.829 441.617 502.669C443.353 498.362 445.018 494.234 446.425 491.263C473.02 436.172 483.278 373.862 476.059 313.071C473.97 312.881 471.975 312.691 469.98 312.501C467.986 312.311 465.991 312.121 463.901 311.931C468.461 367.783 457.823 424.014 433.507 474.926C431.227 479.865 428.948 484.804 426.288 489.364C425.148 486.704 424.008 483.665 422.869 480.625L421.349 476.826C420.602 475.012 419.856 473.259 419.109 471.54L384.352 487.69C389.488 495.433 394.15 503.607 398.551 511.781L399.691 514.06C404.63 523.559 409.189 533.817 413.368 544.076C414.128 545.595 414.508 546.735 414.888 547.874C419.827 561.172 424.006 574.851 427.426 588.909L427.415 588.912C420.96 591.191 414.504 593.469 407.669 595.368C387.913 601.447 367.016 605.626 345.36 607.526C343.639 607.64 341.953 607.755 340.28 607.87L335.281 608.214C333.096 608.365 330.899 608.515 328.643 608.665C263.294 611.705 201.365 593.848 148.555 562.693C96.1238 531.538 64.5894 488.224 49.7721 462.008C49.4971 461.115 49.2221 460.233 48.9495 459.36L48.9477 459.354L48.902 459.208C47.6839 455.309 46.514 451.564 45.5927 447.57C75.9875 484.805 113.98 514.82 157.293 535.337C157.863 534.007 158.338 532.677 158.813 531.347C159.288 530.018 159.763 528.688 160.333 527.358C110.181 500.762 69.1483 463.528 39.1336 414.896C37.2339 402.358 36.0944 389.819 35.7143 377.661C69.1483 429.333 117.78 472.647 173.63 498.103C174.005 497.354 174.379 496.583 174.758 495.8C175.921 493.403 177.137 490.895 178.569 488.604C120.059 460.109 67.6287 409.196 35.7143 351.825V351.445C35.7143 350.186 35.975 346.581 36.2806 342.356L36.4744 339.667L36.6106 338.514L36.6123 338.496C37.323 332.472 37.994 326.784 37.994 321.43C40.7033 326.109 45.6468 332.545 50.0317 338.253C52.4115 341.35 54.6266 344.234 56.2307 346.506C90.4248 397.418 138.676 437.692 194.906 462.008C196.046 460.298 197.281 458.684 198.516 457.069L198.529 457.052C199.759 455.443 200.99 453.834 202.125 452.13C151.594 427.814 108.281 390.199 76.747 343.467L76.7313 343.444L76.7296 343.442C73.6962 338.891 70.6628 334.34 68.0087 329.789C69.5284 329.979 71.0486 330.264 72.5682 330.549C74.0878 330.834 75.6074 331.119 77.1271 331.309C77.6968 331.499 78.3621 331.594 79.0273 331.689C79.692 331.783 80.3566 331.878 80.9264 332.068C81.2853 332.128 81.6431 332.186 82 332.242V289.504L81.6859 289.515H79.0261C68.0082 289.895 56.9902 289.515 45.9722 288.375C45.4018 288.375 44.7366 288.28 44.0719 288.185C43.4073 288.09 42.7426 287.995 42.1728 287.995C28.115 286.475 14.0578 284.196 0 280.776C0.760102 273.937 1.89967 267.098 3.03924 260.26C6.83859 239.743 12.5376 219.226 20.1363 199.089C21.2764 196.619 22.3212 194.055 23.3659 191.49C24.4104 188.926 25.4554 186.361 26.5954 183.891Z" fill="black"/>
</svg>
