<?xml version="1.0" encoding="utf-8"?>
<!-- Generator: Adobe Illustrator 26.0.3, SVG Export Plug-In . SVG Version: 6.00 Build 0)  -->
<svg version="1.1" id="Layer_1" xmlns="http://www.w3.org/2000/svg" xmlns:xlink="http://www.w3.org/1999/xlink" x="0px" y="0px"
	 viewBox="0 0 1000 1000" style="enable-background:new 0 0 1000 1000;" xml:space="preserve">
<style type="text/css">
	.st0{fill:#FFFFFF;stroke:#000000;stroke-miterlimit:10;}
</style>
<path class="st0" d="M603.7,34.6l-32.1,4.8 M571.6,39.3l-36.5,7.9 M535.1,47.2l-37,10.7 M571.6,39.3L559,18.1 M559,18.1l44.8,16.5
	 M536.5,47.2L559,19.4 M559,18.1l-51.2,8.7 M536.5,47.2l-28.7-20.4 M507.8,26.8L498,57.9 M498,57.9l-32.2-21.8 M465.8,36.2l41.9-9.4
	 M498,57.9L452.7,75 M452.7,75l13.1-38.8 M425.4,49l27.3,26 M425.4,49l40.4-12.8 M452.7,75l-33.3,15.5 M419.4,90.5l6-41.5 M425.4,49
	L385,66.4 M419.4,90.5L385,66.4 M420.5,90l-41.7,23.3 M378.8,113.4l6.1-46.9 M385,66.4l-43.6,23.7 M378.8,113.4l-37.4-23.2
	 M329.6,148c1.3-1,11.8-57.9,11.8-57.9 M329.6,148l49.2-34.7 M341.4,90.1L305,114.2 M329.6,148c0,0-23.4-34.7-23.4-33.9
	 M348.1,169.1l23.4,39.4 M371.5,208.5l24.8-72.1 M396.3,136.4l25,35.1 M371.5,208.5l49.9-37.1 M348.1,169.1l48.2-32.7 M396.3,136.4
	l45.4-24.1 M441.6,112.3l-20.3,59.1 M420.1,172.3l46.1-27.1 M442,112.3l24.1,32.8 M466.1,145.1l8.8-47.2 M499.5,128.5L474.9,98
	 M466.1,145.1l33.3-16 M441.6,112.3L474.9,98 M474.9,98l41.8-14.6 M516.7,83.4l-17.3,45.1 M499.5,128.8l42.7-16.1 M542.2,113.6
	l-25.4-30.2 M557.1,72.6l-15,41 M582.1,100.9l-25-28.3 M582.1,100.9l-39.7,11.7 M516.7,83.4l40.4-10.8 M557.1,72.6l45.3-7.8
	 M582.5,100.9l20-36.1 M582.1,100.9l49.5-10.2 M631.7,90.7l-29.2-25.4 M631.7,90.7l19.5-32.3 M651.1,58.4l40.3,22.9 M691.4,81.3
	l-59.8,9.4 M602.5,65.1l48.7-6.6 M384.9,241.6l19.7,46.5 M404.5,288l29-79.5 M433.5,208.5l22.6,39.4 M455.9,248.3l22.4-63.9
	 M495.8,223.2l-17.5-38.8 M519.2,166.8l-23.4,56.4 M536.9,202.4l-17.7-35.6 M567.6,151l-30.7,51.4 M567.6,151l9.1,35.1 M576.7,186.1
	l29.3-44.5 M606,141.6l24.7,27.5 M630.8,169.1l32.4-34.8 M663.1,134.3l-57.1,7.3 M606,141.6l-38.4,9.4 M567.6,151l-48.4,15.8
	 M478.3,184.3l40.9-17.6 M478.3,184.3l-44.8,24.2 M433,208.8l-48.2,32.8 M404.5,288l51.6-40.1 M456.1,247.9l39.7-24.8 M495.8,223.2
	l41.1-20.8 M536.9,202.4l39.7-16.3 M630.8,169.1l-54.1,17"/>
</svg>
