<svg width="587" height="609" viewBox="0 0 587 609" fill="none" xmlns="http://www.w3.org/2000/svg">
<path d="M148.174 43.3133C96.5032 76.7481 53.1908 124.241 26.5954 183.891C25.4553 186.361 24.4106 188.926 23.3659 191.49C22.3212 194.055 21.2764 196.619 20.1363 199.089C12.5376 219.226 6.83859 239.743 3.03924 260.26C1.89967 267.098 0.760102 273.937 0 280.776C14.0578 284.196 28.115 286.475 42.1728 287.995C42.7426 287.995 43.4073 288.09 44.0719 288.185C44.7366 288.28 45.4018 288.375 45.9722 288.375C56.9902 289.515 68.0082 289.895 79.0261 289.515H81.6859C93.084 289.135 104.102 288.375 115.5 286.855H116.64C130.317 284.956 143.995 282.296 157.293 278.877C173.63 274.697 189.587 268.998 205.164 262.159C205.922 261.806 206.686 261.452 207.455 261.098L209.313 260.243C213.753 258.204 218.307 256.112 222.641 253.801C225.229 252.248 227.818 250.871 230.526 249.431C231.793 248.757 233.087 248.068 234.419 247.342C240.878 243.922 247.716 241.262 254.556 238.603C268.993 233.284 284.19 229.484 299.768 227.965C274.978 195.015 230.231 206.645 208.34 212.334C203.726 213.533 200.128 214.468 197.945 214.667C210.103 199.469 223.401 185.791 237.839 173.253C274.692 141.338 318.764 118.162 365.496 105.244L365.51 105.24C368.545 104.481 371.579 103.723 374.234 102.964C377.654 97.2649 381.073 91.9457 384.873 86.2466C385.632 85.1068 386.392 83.9669 387.152 83.207C388.102 81.8772 389.052 80.6424 390.001 79.4076C390.951 78.1728 391.901 76.938 392.851 75.6083C390.191 75.7982 387.531 76.0832 384.872 76.3681C382.212 76.6531 379.553 76.938 376.894 77.128C321.044 84.7268 268.233 106.763 223.401 140.958C221.501 137.159 219.601 133.739 217.702 130.32C264.813 90.8059 322.184 65.7298 382.973 57.751C385.897 57.3333 389.687 56.6096 393.711 55.8414L393.721 55.8393C400.673 54.5118 408.316 53.0524 413.368 52.8118C408.428 49.3923 403.109 45.9728 397.79 42.5534C395.767 41.3734 393.819 40.1934 392.146 39.1793C390.046 37.9078 388.378 36.8971 387.532 36.4743C387.532 36.4743 387.152 36.4743 387.152 36.0944C321.424 39.1339 252.656 63.0702 200.985 102.964C200.035 101.444 198.99 100.019 197.945 98.5947C196.9 97.1699 195.855 95.7451 194.906 94.2254C242.777 55.8513 303.187 31.1552 364.356 24.3162C352.958 19.377 341.56 14.8177 329.402 11.0183C272.412 16.3375 220.741 36.4743 174.769 69.5292C173.819 68.5793 172.87 67.5345 171.92 66.4897C170.97 65.4448 170.02 64.4 169.07 63.4501C206.684 33.8147 250.756 13.2979 297.488 2.65957C292.549 1.51976 287.609 0.75988 282.671 0C252.656 1.13983 199.465 10.2584 148.174 43.3133Z" fill="black"/>
<path d="M36.4744 339.667L36.2806 342.356C35.975 346.581 35.7143 350.186 35.7143 351.445V351.825C67.6287 409.196 120.059 460.109 178.569 488.604C177.137 490.895 175.921 493.403 174.758 495.8C174.379 496.583 174.005 497.354 173.63 498.103C117.78 472.647 69.1483 429.333 35.7143 377.661C36.0944 389.819 37.2339 402.358 39.1336 414.896C69.1483 463.528 110.181 500.762 160.333 527.358C159.763 528.688 159.288 530.018 158.813 531.347C158.338 532.677 157.863 534.007 157.293 535.337C113.98 514.82 75.9875 484.805 45.5927 447.571C46.514 451.564 47.6839 455.309 48.902 459.208C49.1901 460.131 49.4811 461.063 49.7721 462.008C64.5894 488.224 96.1238 531.537 148.555 562.693C201.365 593.848 263.294 611.705 328.643 608.665C330.899 608.515 333.096 608.365 335.281 608.214L340.28 607.87C341.953 607.755 343.639 607.64 345.36 607.526C367.016 605.626 387.913 601.447 407.669 595.368C414.505 593.469 420.96 591.191 427.415 588.912L427.426 588.909C424.006 574.851 419.827 561.173 414.888 547.875C414.508 546.735 414.128 545.595 413.368 544.075C409.189 533.817 404.63 523.559 399.691 514.06L398.551 511.781C393.232 501.902 387.533 492.024 381.074 482.905L380.694 482.525V482.145C373.095 470.747 364.356 459.729 355.238 449.47C344.22 436.932 331.683 425.154 318.765 414.136C313.825 409.956 308.887 406.157 303.568 402.358C300.89 400.751 298.402 398.956 295.836 397.105C294.761 396.33 293.672 395.544 292.55 394.759C286.851 390.579 281.152 385.64 275.832 380.701C264.435 370.063 254.556 357.904 245.817 344.986C227.326 381.657 257.699 416.776 272.527 433.921C275.674 437.559 278.121 440.389 279.252 442.251C260.255 438.072 242.018 432.373 224.541 425.154C179.329 406.537 139.056 377.281 106.762 341.187C104.862 338.907 102.962 336.628 100.683 334.348C98.4576 334.086 96.232 333.87 93.9913 333.651C89.7281 333.236 85.409 332.816 80.9264 332.068C80.3566 331.878 79.692 331.783 79.0273 331.689C78.3621 331.594 77.6968 331.499 77.1271 331.309C75.6074 331.119 74.0878 330.834 72.5682 330.549C71.0486 330.264 69.5284 329.979 68.0087 329.789C70.6633 334.341 73.6973 338.892 76.7313 343.444L76.747 343.467C108.281 390.199 151.594 427.814 202.125 452.13C200.986 453.84 199.751 455.454 198.516 457.069C197.281 458.684 196.046 460.298 194.906 462.008C138.676 437.692 90.4248 397.418 56.2307 346.506C54.6266 344.234 52.4115 341.35 50.0317 338.253C45.6468 332.545 40.7033 326.109 37.994 321.43C37.994 326.784 37.323 332.472 36.6123 338.496L36.6106 338.514L36.4744 339.667Z" fill="black"/>
<path d="M438.444 82.0683C438.825 81.5929 439.206 81.1177 439.586 80.5473C448.324 69.529 457.823 58.8906 468.841 48.2523C474.16 52.8116 479.479 57.3709 484.418 61.9302C499.615 75.988 513.673 91.9455 526.21 109.423C529.63 113.982 532.67 118.541 535.709 123.101C571.423 178.192 587 240.122 587 301.673C586.62 362.843 565.344 411.856 550.147 437.692L550.127 437.713C546.714 441.506 543.301 445.297 539.888 448.71C556.605 403.877 563.444 356.004 559.265 308.132C556.225 308.892 553.566 309.272 550.906 309.652C553.186 366.263 542.168 420.594 515.192 471.126C505.314 479.105 495.056 486.704 484.798 493.163C512.533 438.072 525.071 374.242 518.992 313.071C517.282 313.071 515.478 313.166 513.673 313.261C511.868 313.356 510.064 313.451 508.354 313.451C513.293 378.801 495.816 449.47 462.382 506.081C462.382 506.461 462.002 506.461 462.002 506.461C460.482 507.221 456.303 509.501 451.364 511.78C445.665 514.44 439.966 517.099 434.267 519.379C436.503 515.354 439.133 508.829 441.617 502.669C443.353 498.362 445.017 494.234 446.425 491.263C473.02 436.172 483.278 373.862 476.059 313.071C471.88 312.691 468.081 312.311 463.901 311.931C468.461 367.783 457.823 424.014 433.507 474.926C431.227 479.865 428.948 484.804 426.288 489.364C425.148 486.704 424.008 483.665 422.869 480.625L421.349 476.826C419.575 472.517 417.801 468.547 416.027 464.576C415.141 462.594 414.256 460.613 413.37 458.588C413.618 457.928 413.866 457.286 414.109 456.654C414.988 454.376 415.815 452.229 416.41 449.85C431.227 403.877 435.786 354.485 429.328 305.852C426.668 287.235 422.489 268.238 416.41 250.001C415.464 251.893 414.361 255.228 412.952 259.491C405.871 280.911 391.053 325.734 349.541 328.269C356.38 314.591 361.7 299.773 365.119 284.576C367.019 277.737 368.158 270.518 368.918 263.299C369.678 258.74 370.058 254.56 370.058 250.001L370.312 247.954C370.992 242.482 371.704 236.743 372.718 231.004C375.377 214.666 379.176 197.949 384.496 181.991C389.055 169.073 393.993 156.156 400.073 143.617V143.237C400.291 143.019 400.384 142.926 400.423 142.814C400.453 142.732 400.453 142.639 400.453 142.478C405.392 132.219 410.711 122.341 416.79 112.842C416.98 112.462 417.265 112.082 417.55 111.702C417.834 111.322 418.119 110.943 418.31 110.563C424.009 101.444 430.467 92.3254 437.306 83.5868C437.685 83.0174 438.065 82.5428 438.444 82.0683Z" fill="black"/>
</svg>
