<?xml version="1.0" encoding="utf-8"?>
<!-- Generator: Adobe Illustrator 26.0.3, SVG Export Plug-In . SVG Version: 6.00 Build 0)  -->
<svg version="1.1" id="Layer_1" xmlns="http://www.w3.org/2000/svg" xmlns:xlink="http://www.w3.org/1999/xlink" x="0px" y="0px"
	 viewBox="0 0 1000 1000" style="enable-background:new 0 0 1000 1000;" xml:space="preserve">
<style type="text/css">
	.st0{fill:#FFFFFF;stroke:#000000;stroke-miterlimit:10;}
</style>
<path class="st0" d="M613.4,40.3L581.3,45 M581.3,45l-36.5,7.9 M544.8,52.9l-37,10.7 M581.3,45L559,18.1 M559,18.1l54.5,22.2
	 M546.2,52.9L559,19.4 M559,18.1l-51.2,8.7 M546.2,52.9l-38.5-26.1 M507.8,26.8v36.8 M507.8,63.6l-41.9-27.5 M465.8,36.2l41.9-9.4
	 M507.8,63.6l-45.3,17.1 M465.8,36.2l-3.4,44.5 M425.4,49l37,31.7 M425.4,49l40.4-12.8 M462.4,80.7l-33.3,15.5 M429.2,96.2L425.4,49
	 M425.4,49L385,66.4 M385,66.4l44.2,29.8 M388.6,119l41.7-23.3 M388.6,119L385,66.4 M385,66.4l-43.6,23.7 M388.6,119l-47.2-28.9
	 M339.4,153.7c1.3-1,2.1-63.6,2.1-63.6 M339.4,153.7l49.2-34.7 M341.4,90.1L305,114.2 M339.4,153.7c0,0-33.1-40.4-33.1-39.6"/>
</svg>
