<?xml version="1.0" encoding="utf-8"?>
<!-- Generator: Adobe Illustrator 26.0.3, SVG Export Plug-In . SVG Version: 6.00 Build 0)  -->
<svg version="1.1" id="Layer_1" xmlns="http://www.w3.org/2000/svg" xmlns:xlink="http://www.w3.org/1999/xlink" x="0px" y="0px"
	 viewBox="0 0 1000 1000" style="enable-background:new 0 0 1000 1000;" xml:space="preserve">
<style type="text/css">
	.st0{fill:#FFFFFF;stroke:#000000;stroke-miterlimit:10;}
</style>
<path class="st0" d="M613.4,40.3L581.3,45 M581.3,45l-36.5,7.9 M544.8,52.9l-37,10.7 M581.3,45L559,18.1 M559,18.1l54.5,22.2
	 M546.2,52.9L559,19.4 M559,18.1l-51.2,8.7 M546.2,52.9l-38.5-26.1 M507.8,26.8v36.8 M507.8,63.6l-41.9-27.5 M465.8,36.2l41.9-9.4
	 M507.8,63.6l-45.3,17.1 M462.4,80.7l3.4-44.5 M425.4,49l37,31.7 M425.4,49l40.4-12.8 M462.4,80.7l-33.3,15.5 M429.2,96.2L425.4,49
	 M425.4,49L385,66.4 M429.2,96.2L385,66.4 M430.2,95.7L388.6,119 M388.6,119L385,66.4 M385,66.4l-43.6,23.7 M388.6,119l-47.2-28.9
	 M339.4,153.7c1.3-1,2.1-63.6,2.1-63.6 M339.4,153.7l49.2-34.7 M341.4,90.1L305,114.2 M339.4,153.7c0,0-33.1-40.4-33.1-39.6
	 M348.1,169.1l27.4,44.9 M375.5,214l20.7-77.6 M396.3,136.4l29.1,40.5 M375.5,214l49.9-37.1 M348.1,169.1l48.2-32.7 M396.3,136.4
	l45.4-24.1 M441.6,112.3l-16.2,64.6 M424.2,177.8l46.1-27.1 M442,112.3l28.2,38.3 M470.2,150.6l4.7-52.7 M503.5,133.9l-28.6-36
	 M470.2,150.6l33.3-16 M441.6,112.3L474.9,98 M474.9,98l41.8-14.6 M516.7,83.4l-13.2,50.6 M503.5,134.3l42.7-16.1 M546.2,119
	l-29.5-35.7 M557.1,72.6L546.2,119 M586.2,106.4l-29.1-33.8 M586.2,106.4l-39.7,11.7 M516.7,83.4l40.4-10.8 M557.1,72.6l45.3-7.8
	 M586.6,106.4l15.9-41.6 M586.2,106.4l49.5-10.2 M635.7,96.2l-33.3-30.8 M635.7,96.2l15.4-37.8 M651.1,58.4l44.4,28.4 M695.5,86.8
	l-59.8,9.4 M602.5,65.1l48.7-6.6 M384.9,231.5l19.7,56.6 M404.5,288l29-89.6 M433.5,198.4l22.6,49.5 M455.9,248.3l22.4-74
	 M495.8,223.2l-17.5-48.9 M519.2,156.7l-23.4,66.5 M536.9,202.4l-17.7-45.7 M567.6,140.8l-30.7,61.5 M567.6,140.8l9.1,45.3
	 M576.7,186.1l29.3-54.6 M606,131.5l24.7,37.6 M630.8,169.1l32.4-44.9 M663.1,124.2l-57.1,7.3 M606,131.5l-38.4,9.4 M567.6,140.8
	l-48.4,15.8 M478.3,174.2l40.9-17.6 M478.3,174.2l-44.8,24.2 M433,198.7l-48.2,32.8 M404.5,288l51.6-40.1 M456.1,247.9l39.7-24.8
	 M495.8,223.2l41.1-20.8 M536.9,202.4l39.7-16.3 M630.8,169.1l-54.1,17"/>
</svg>
