<?xml version="1.0" encoding="utf-8"?>
<!-- Generator: Adobe Illustrator 26.0.3, SVG Export Plug-In . SVG Version: 6.00 Build 0)  -->
<svg version="1.1" id="Layer_1" xmlns="http://www.w3.org/2000/svg" xmlns:xlink="http://www.w3.org/1999/xlink" x="0px" y="0px"
	 viewBox="0 0 1000 1000" style="enable-background:new 0 0 1000 1000;" xml:space="preserve">
<style type="text/css">
	.st0{fill:#FFFFFF;stroke:#000000;stroke-miterlimit:10;}
</style>
<path class="st0" d="M613.4,40.3L581.3,45 M581.3,45l-36.5,7.9 M544.8,52.9l-37,10.7 M581.3,45L559,18.1 M559,18.1l54.5,22.2
	 M546.2,52.9L559,19.4 M559,18.1l-51.2,8.7 M546.2,52.9l-38.5-26.1 M507.8,26.8v36.8 M507.8,63.6l-41.9-27.5 M465.8,36.2l41.9-9.4
	 M507.8,63.6l-45.3,17.1 M465.8,36.2l-3.4,44.5 M425.4,49l37,31.7 M425.4,49l40.4-12.8 M462.4,80.7l-33.3,15.5 M429.2,96.2L425.4,49
	 M425.4,49L385,66.4 M385,66.4l44.2,29.8 M388.6,119l41.7-23.3 M388.6,119L385,66.4 M385,66.4l-43.6,23.7 M388.6,119l-47.2-28.9
	 M339.4,153.7c1.3-1,2.1-63.6,2.1-63.6 M339.4,153.7l49.2-34.7 M341.4,90.1L305,114.2 M339.4,153.7L305,114.2 M348.1,169.1
	l27.4,44.9 M375.5,214l20.7-77.6 M396.3,136.4l29.1,40.5 M425.4,176.9L375.5,214 M348.1,169.1l48.2-32.7 M396.3,136.4l45.4-24.1
	 M441.6,112.3l-16.2,64.6 M424.2,177.8l46.1-27.1 M442,112.3l28.2,38.3 M470.2,150.6l4.7-52.7 M503.5,133.9l-28.6-36 M470.2,150.6
	l33.3-16 M441.6,112.3L474.9,98 M474.9,98l41.8-14.6 M516.7,83.4l-13.2,50.6 M503.5,134.3l42.7-16.1 M516.7,83.4l29.5,35.7
	 M546.2,119l10.9-46.5 M557.1,72.6l29.1,33.8 M586.2,106.4l-39.7,11.7 M516.7,83.4l40.4-10.8 M557.1,72.6l45.3-7.8 M602.5,64.8
	l-15.9,41.6 M586.2,106.4l49.5-10.2 M602.5,65.4l33.3,30.8 M635.7,96.2l15.4-37.8 M651.1,58.4l44.4,28.4 M695.5,86.8l-59.8,9.4
	 M602.5,65.1l48.7-6.6 M384.9,231.5l19.7,56.6 M404.5,288l29-89.6 M433.5,198.4l22.6,49.5 M455.9,248.3l22.4-74 M478.3,174.2
	l17.5,48.9 M495.8,223.2l23.4-66.5 M519.2,156.7l17.7,45.7 M536.9,202.4l30.7-61.5 M567.6,140.8l9.1,45.3 M576.7,186.1l29.3-54.6
	 M606,131.5l24.7,37.6 M630.8,169.1l32.4-44.9 M663.1,124.2l-57.1,7.3 M606,131.5l-38.4,9.4 M567.6,140.8l-48.4,15.8 M519.2,156.7
	l-40.9,17.6 M478.3,174.2l-44.8,24.2 M433,198.7l-48.2,32.8 M404.5,288l51.6-40.1 M456.1,247.9l39.7-24.8 M495.8,223.2l41.1-20.8
	 M536.9,202.4l39.7-16.3 M576.7,186.1l54.1-17 M337.2,248.3l47.7-16.8 M263,70l32.6,34.1 M263,70l47-25 M310.1,45l-14.4,59.1
	 M295.7,104.2l41.5-29.4 M310.1,45l27.3,29.6 M351,26.8l-13.7,47.8 M375.5,52.9L351,26.8 M375.5,52.9l19.2-39.6 M394.7,13.3l20,20.7
	 M414.7,34l21-29.2 M453.1,19.4L435.7,4.7 M453.1,19.4L470.2,0 M470.2,0l36.3,4.4 M506.5,4.4l-53.5,15.1 M414.7,34l38.3-14.6
	 M414.7,34l-39.2,18.9 M375.5,52.9l-38.2,21.7 M310.1,45L351,26.8 M351,26.8l43.7-13.5 M394.7,13.3l41-8.5 M435.7,4.7L470.2,0
	 M337.2,248.3l38.4-34.3 M375.5,214l9.4,17.5 M348.1,169.1l-46.5,18.3 M301.6,187.4l37.8-33.7 M348.1,169.1l-8.7-15.3 M305,114.2
	l-36.6,36.5 M268.5,150.6l27.2-46.4 M305,114.2l-9.4-10 M263,70l-51.8,38.6 M211.3,108.7l57.2,42 M268.5,150.6L263,70 M301.6,187.4
	l3.4-73.3 M268.5,150.6l33.1,36.8 M301.6,187.4l36.6,60.5 M338.2,247.9l9.9-78.8 M338.2,247.9l28.5,76.4 M404.5,288l-37.8,36.3
	 M366.7,324.4l18.2-92.9 M366.7,324.4l-24.5,28.4 M342.2,352.8l-51.5-68.5 M290.7,284.2l46.4-36 M247.5,240.9l43.3,43.4
	 M247.5,240.9l54.1-53.4 M247.5,240.9l-46.8-40.6 M268.5,150.6l-67.8,49.6 M200.7,200.2l-54-31.2 M211.3,108.7L146.7,169
	 M211.3,108.7l-10.6,91.6 M268.3,150.8l-20.8,91 M301.6,187.4l-10.9,96.8 M338.2,247.9l4,104.9 M200.7,200.2l-53,53.5 M146.7,169
	l-35.6,45 M147.7,253.7L111.1,214 M147.7,253.7l49.6,41 M197.3,294.8l50.2-53.9 M197.3,294.8l39.5,37.7 M236.7,332.5l54-48.2
	 M236.7,332.5l35,38.3 M271.8,370.7l70.4-17.9 M342.2,352.8l28.5,70.3 M370.7,423.1l-77.4,30.2 M293.3,452.3l-21.5-81.6
	 M370.7,423.1l62.4-30.2 M433,392.9l-17.6-54.3 M415.5,338.6l-73.3,14.2 M415.5,338.6l60.5,8.9 M476,347.4l-1,31.6 M474.9,379
	L433,392.9 M474.9,379l34.5-4.4 M509.4,374.6L476,347.4 M146.7,169l1,84.7 M200.7,200.2l-3.4,94.5 M247.5,240.9l-10.7,91.6
	 M271.8,370.7l19-86.5 M342.2,352.8l-48.9,100.5 M415.5,338.6l-44.8,84.5 M433,392.9l42.9-45.5"/>
</svg>
