<?xml version="1.0" encoding="utf-8"?>
<!-- Generator: Adobe Illustrator 26.0.3, SVG Export Plug-In . SVG Version: 6.00 Build 0)  -->
<svg version="1.1" id="Layer_1" xmlns="http://www.w3.org/2000/svg" xmlns:xlink="http://www.w3.org/1999/xlink" x="0px" y="0px"
	 viewBox="0 0 1000 1000" style="enable-background:new 0 0 1000 1000;" xml:space="preserve">
<style type="text/css">
	
		.st0{clip-path:url(#SVGID_00000101063255987988934680000004420951548399015590_);fill:#FFFFFF;stroke:#000000;stroke-miterlimit:10;}
</style>
<g>
	<defs>
		<rect id="SVGID_1_" width="1000" height="1000"/>
	</defs>
	<clipPath id="SVGID_00000151537660732795298480000009846417646728554669_">
		<use xlink:href="#SVGID_1_"  style="overflow:visible;"/>
	</clipPath>
	
		<path style="clip-path:url(#SVGID_00000151537660732795298480000009846417646728554669_);fill:#FFFFFF;stroke:#000000;stroke-miterlimit:10;" d="
		M613.4,40.3L581.3,45 M581.3,45l-36.5,7.9 M544.8,52.9l-37,10.7 M581.3,45L559,18.1 M559,18.1l54.5,22.2 M546.2,52.9L559,19.4
		 M559,18.1l-51.2,8.7 M546.2,52.9l-38.5-26.1 M507.8,26.8v36.8 M507.8,63.6l-41.9-27.5 M465.8,36.2l41.9-9.4 M507.8,63.6
		l-45.3,17.1 M462.4,80.7l3.4-44.5 M425.4,49l37,31.7 M425.4,49l40.4-12.8 M462.4,80.7l-33.3,15.5 M429.2,96.2L425.4,49 M425.4,49
		L385,66.4 M429.2,96.2L385,66.4 M430.2,95.7L388.6,119 M388.6,119L385,66.4 M385,66.4l-43.6,23.7 M388.6,119l-47.2-28.9
		 M339.4,153.7c1.3-1,2.1-63.6,2.1-63.6 M339.4,153.7l49.2-34.7 M341.4,90.1L305,114.2 M339.4,153.7L305,114.2 M348.1,169.1
		l27.4,44.9 M375.5,214l20.7-77.6 M396.3,136.4l29.1,40.5 M375.5,214l49.9-37.1 M348.1,169.1l48.2-32.7 M396.3,136.4l45.4-24.1
		 M441.6,112.3l-16.2,64.6 M424.2,177.8l46.1-27.1 M442,112.3l28.2,38.3 M470.2,150.6l4.7-52.7 M503.5,133.9l-28.6-36 M470.2,150.6
		l33.3-16 M441.6,112.3L474.9,98 M474.9,98l41.8-14.6 M516.7,83.4l-13.2,50.6 M503.5,134.3l42.7-16.1 M546.2,119l-29.5-35.7
		 M557.1,72.6L546.2,119 M586.2,106.4l-29.1-33.8 M586.2,106.4l-39.7,11.7 M516.7,83.4l40.4-10.8 M557.1,72.6l45.3-7.8 M586.6,106.4
		l15.9-41.6 M586.2,106.4l49.5-10.2 M635.7,96.2l-33.3-30.8 M635.7,96.2l15.4-37.8 M651.1,58.4l44.4,28.4 M695.5,86.8l-59.8,9.4
		 M602.5,65.1l48.7-6.6 M384.9,231.5l19.7,56.6 M404.5,288l29-89.6 M433.5,198.4l22.6,49.5 M455.9,248.3l22.4-74 M495.8,223.2
		l-17.5-48.9 M519.2,156.7l-23.4,66.5 M536.9,202.4l-17.7-45.7 M567.6,140.8l-30.7,61.5 M567.6,140.8l9.1,45.3 M576.7,186.1
		l29.3-54.6 M606,131.5l24.7,37.6 M630.8,169.1l32.4-44.9 M663.1,124.2l-57.1,7.3 M606,131.5l-38.4,9.4 M567.6,140.8l-48.4,15.8
		 M478.3,174.2l40.9-17.6 M478.3,174.2l-44.8,24.2 M433,198.7l-48.2,32.8 M404.5,288l51.6-40.1 M456.1,247.9l39.7-24.8 M495.8,223.2
		l41.1-20.8 M536.9,202.4l39.7-16.3 M630.8,169.1l-54.1,17 M384.9,231.5l-47.7,16.8 M295.7,104.2L263,70 M263,70l47-25 M310.1,45
		l-14.4,59.1 M295.7,104.2l41.5-29.4 M310.1,45l27.3,29.6 M337.4,74.6L351,26.8 M375.5,52.9L351,26.8 M375.5,52.9l19.2-39.6
		 M394.7,13.3l20,20.7 M414.7,34l21-29.2 M435.7,4.7l17.3,14.7 M453.1,19.4L470.2,0 M470.2,0l36.3,4.4 M506.5,4.4l-53.5,15.1
		 M453.1,19.4L414.7,34 M414.7,34l-39.2,18.9 M375.5,52.9l-38.2,21.7 M310.1,45L351,26.8 M351,26.8l43.7-13.5 M394.7,13.3l41-8.5
		 M435.7,4.7L470.2,0 M337.2,248.3l38.4-34.3 M375.5,214l9.4,17.5 M348.1,169.1l-46.5,18.3 M301.6,187.4l37.8-33.7 M339.4,153.7
		l8.7,15.3 M305,114.2l-36.6,36.5 M268.5,150.6l27.2-46.4 M295.7,104.2l9.4,10 M263,70l-51.8,38.6 M211.3,108.7l57.2,42
		 M268.5,150.6L263,70 M301.6,187.4l3.4-73.3 M268.5,150.6l33.1,36.8 M301.6,187.4l36.6,60.5 M338.2,247.9l9.9-78.8 M338.2,247.9
		l28.5,76.4 M404.5,288l-37.8,36.3 M366.7,324.4l18.2-92.9 M366.7,324.4l-24.5,28.4 M342.2,352.8l-51.5-68.5 M290.7,284.2l46.4-36
		 M290.7,284.2l-43.3-43.4 M247.5,240.9l54.1-53.4 M247.5,240.9l-46.8-40.6 M268.5,150.6l-67.8,49.6 M200.7,200.2l-54-31.2
		 M211.3,108.7L146.7,169 M211.3,108.7l-10.6,91.6 M268.3,150.8l-20.8,91 M301.6,187.4l-10.9,96.8 M338.2,247.9l4,104.9
		 M200.7,200.2l-53,53.5 M146.7,169l-35.6,45 M111.1,214l36.6,39.7 M147.7,253.7l49.6,41 M197.3,294.8l50.2-53.9 M197.3,294.8
		l39.5,37.7 M236.7,332.5l54-48.2 M236.7,332.5l35,38.3 M271.8,370.7l70.4-17.9 M342.2,352.8l28.5,70.3 M370.7,423.1l-77.4,30.2
		 M293.3,452.3l-21.5-81.6 M370.7,423.1l62.4-30.2 M433,392.9l-17.6-54.3 M415.5,338.6l-73.3,14.2 M415.5,338.6l60.5,8.9 M476,347.4
		l-1,31.6 M474.9,379L433,392.9 M474.9,379l34.5-4.4 M509.4,374.6L476,347.4 M146.7,169l1,84.7 M200.7,200.2l-3.4,94.5 M247.5,240.9
		l-10.7,91.6 M290.7,284.2l-19,86.5 M342.2,352.8l-48.9,100.5 M415.5,338.6l-44.8,84.5 M476,347.4L433,392.9 M110.3,215.1l-36,59.2
		 M74.4,274.2l54.5,53.2 M128.9,327.5l18.8-73.8 M128.9,327.5l68.4-32.7 M129.4,327.5l52.5,53.3 M181.9,380.8l54.8-48.4
		 M181.9,380.8l89.9-10.1 M181.9,380.8l52.7,86.3 M234.6,467.2l58.7-13.9 M271.8,370.7l-37.2,96.4 M197.3,294.8l-15.4,86.1
		 M110.3,215.1l18.6,112.4 M74.4,274.2l-26.1,58.2 M48.3,332.5l44,50.9 M92.3,383.3l36.5-55.8 M92.3,383.3l27.3,31.8 M119.6,415.1
		l62.3-34.3 M119.6,415.1l18.7,60.8 M138.3,475.9l96.3-8.7 M74.4,274.2l18,109.1 M128.9,327.5l-9.3,87.6 M181.9,380.8l-43.6,95.1
		 M48.3,332.5l-20.1,66.8 M28.2,399.2L58,438.2 M58,438.2l34.3-54.8 M119.6,415.1l-61.6,23 M58,438.2v29 M58,467.2l80.3,8.7
		 M58,438.2l-40.8,23.2 M17.2,461.3l11-62.1 M17.2,461.3l40.8,5.8 M812.2,808.8l13.7-29.5 M825.9,779.3l13.5-34.8 M839.4,744.5
		l11.4-36.8 M825.9,779.3l34.8-3.9 M860.7,775.4l-48.5,33.4 M859.6,774.7l-21-29 M860.7,775.4l20.9-47.5 M838.6,745.7l43-17.8
		 M881.6,727.9l-30.8-20.2 M850.8,707.7l46-19.9 M896.7,687.7l-15.2,40.2 M850.8,707.7l10.7-47.2 M896.7,687.7l-35.3-27.3
		 M861.4,660.4l46.8-13.5 M896.7,687.7l11.5-40.8 M866.7,624.1l-5.3,36.3 M866.7,624.1l41.5,22.8 M908.2,646.9l7.6-43.4
		 M915.9,603.5l-49.2,20.6 M869.9,577.6l-3.4,47.6 M869.9,577.6l46,25.9 M915.9,603.5l4.1-49.4 M869.9,577.6l50.1-23.5 M868,517.4
		c0.1,1.6,52,36.7,52,36.7 M868,517.4l1.9,60.2 M920,554.1l-0.1-43.6 M868,517.4l51.9-7 M797.8,514.6l52.6,1.7 M797.8,514.6l53.5,60
		 M851.2,574.5l-49.9,2.1 M801.3,576.6l-3.6-62 M850.4,516.3l0.8,58.2 M846.4,625.6l4.8-51.1 M846.4,625.6l-45.1-49 M801.3,575.1
		l-2.6,53.4 M846.2,625.9l-47.5,2.5 M798.7,628.5l41.4,32.9 M794.3,665.5l45.8-4.1 M798.7,628.5l-5,36.6 M846.4,625.6l-6.3,35.7
		 M840.1,661.3l-10.8,42.9 M829.3,704.3l-35-38.8 M794.1,665.3l-10,44.5 M829.3,704.3l-46,5.1 M783.3,709.4l32.8,34.6 M816.2,744
		l-44.2,5.7 M784,710.1l-12.1,39.6 M829.3,704.3L816.2,744 M816.2,744l-18.4,42.2 M797.7,786.1l-26-36.1 M771.9,749.7l-18.7,47
		 M797.3,785.8l-44,10.8 M753.2,796.7l23.1,33.6 M776.4,830.3l-48.1,21.5 M728.3,851.8l25-55.1 M797.5,786l-21.2,44.3 M778,512.8
		l-58.1-14.7 M719.9,498.1l59,73.4 M725.2,563.2l53.8,8.3 M725,562.9l49.6,59.4 M774.5,622.3L724,610 M766.7,666.1L724,610
		 M766.7,666.1l-47.9-10.3 M718.8,655.8l34.6,59.4 M753.4,715.2L710.6,698 M710.6,698l29.5,54.5 M740.1,752.5l-45,0 M695.1,752.5
		l19.7,51.7 M714.8,804.2l25.2-51.8 M740.1,752.5l13.3-37.2 M753.4,715.2l13.3-49.1 M766.7,666.1l7.8-43.8 M774.5,622.3l4.4-50.7
		 M778.9,571l-0.9-58.2 M719.9,498.1l5.2,65.1 M724,610l1.1-46.8 M724,610l-5.2,45.8 M718.8,655.8l-8.2,42.2 M695.1,752.5l15.5-54.5
		 M790.2,463.7L778,512.8 M979.8,499.6l-46.5,8.5 M979.8,499.6l-4.9,53 M974.9,552.7l-41.5-44.5 M933.4,508.1l1.8,50.8 M974.9,552.7
		l-39.7,6.6 M935.2,559.2l32.5,37.7 M932.4,603l35.3-6.1 M932.4,603l22.6,37.8 M954.9,640.8l-28.3,5.3 M926.7,646.2l12.9,33.6
		 M917.8,686.2l21.8-6.4 M917.8,686.2l6.8,25 M924.6,711.2l-23.6,28 M901,739.2l16.8-53 M917.8,686.2l8.9-40 M926.7,646.2l5.7-43.1
		 M932.4,603l2.8-43.8 M974.9,552.7l-7.2,44.2 M967.7,596.9l-12.7,43.9 M939.5,679.8l15.4-39 M939.5,679.8l-15,31.4 M790.2,463.7
		l7.6,50.9 M797.8,514.6l-19.7-1.8 M850.4,516.3l10.2-48.9 M868,517.4l-7.4-50.1 M850.4,516.3l17.6,1.1 M909.5,459.9l10.4,50.6
		 M909.5,459.9l23.9,48.2 M933.4,508.1l-13.5,2.3 M979.8,499.6l-3.8-64.5 M976,435.2l-66.5,24.7 M909.5,459.9l70.3,39.7
		 M919.9,510.5l-59.3-43.1 M909.5,459.9l-48.9,7.5 M860.6,467.4l-70.6-2.7 M789.9,464.7l60.4,51.6 M789.9,464.7l-79.6-18.1
		 M719.9,498.1l-9.6-51.5 M710.4,446.6l67.6,66.2 M710.4,446.6l-10.3-36.1 M785.6,405.1l-85.5,5.4 M785.6,405.1l4.6,58.5
		 M845.6,392.8l-60,12.3 M845.6,392.8l14.9,74.6 M845.6,392.8l59.7-16.8 M909.5,459.9l-4.2-83.9 M961,348l-55.7,28 M976,435.2
		L961,348 M905.3,376l70.7,59.2 M909.5,459.6l-64.6-67.3 M860.6,467.4l-74.9-62.3 M789.9,464.7l-89.8-54.3 M905.3,376l-15.6-73.6
		 M961,348l-18-54.5 M889.7,302.4l53.3-8.8 M889.7,302.4l-61.5,18.9 M845.6,392.8l-17.5-71.6 M828.2,321.2L775,333.5 M775,333.5
		l10.6,71.6 M775,333.5l-51.2,8.3 M723.8,341.8l-23.7,68.7 M700.1,410.5l-74.4-14.8 M625.7,395.6l17.3-81.3 M643.8,314.9l80,26.8
		 M625.7,395.6l-9.1,68.7 M616.7,464.3l55.1,15.2 M671.7,479.5l28.4-69 M671.7,479.5l-40.6,45.7 M605.3,507l25.8,18.2 M616.7,464.3
		L605.3,507 M605.3,507L590,538.2 M590,538.2l41.1-13 M889.7,302.4L961,348 M905.3,376l-77.1-54.8 M845.6,392.8L775,333.5
		 M785.6,405.1l-61.9-63.4 M700.1,410.5L643,314.4 M671.7,479.5l-46-83.9 M631.1,525.2l-14.4-60.9 M912.8,229.8l29.7,62.6
		 M912.8,229.8l-74.4,16.3 M889.7,302.4l-51.3-56.3 M838.4,246.1l-10.2,75.1 M838.1,246.5l-73.4,14.6 M764.7,261.1l10.3,72.4
		 M764.7,261.1l-40.9,80.7 M663.6,257.7l101.1,3.4 M663.6,257.7L643,314.4 M723.8,341.8l-60.1-84.1 M764.7,261.1l63.5,60.1
		 M942.5,292.3l-104.1-46.2 M878.5,176l34.3,53.8 M811.8,184.9l66.7-8.9 M811.8,184.9l26.6,61.2 M811.8,184.9l-41.6,5.3
		 M770.3,190.2l-5.6,70.9 M709.2,172.5l61,17.8 M709.2,172.5l-45.6,85.2 M912.8,229.8l-101-44.9 M838.4,246.1l-68.1-55.9
		 M709.2,172.5l55.5,88.7 M878.5,176l-44.7-53.5 M784.9,126.1l48.9-3.5 M784.9,126.1l27,58.8 M770.3,190.2l14.6-64.1 M784.9,126.1
		l-24.2-15.9 M760.6,110.1l-51.4,62.3 M787.9,79.2l-3.1,46.8 M787.9,79.2l45.9,43.3 M787.9,79.2l-27.3,30.9 M75.9,623.3l18.7,26.6
		 M118.1,678.9l-23.4-29.1 M144.3,707.2l-26.2-28.3 M94.6,649.8l-14,32.1 M80.6,681.9l-4.7-58.6 M117.4,677.6l-35.6,3.7 M80.6,681.9
		l30.7,41.8 M111.3,723.7l6.1-46.1 M111.3,723.7l32.9-16.5 M144.3,707.2l-5.7,49.8 M138.5,757l-27.2-33.2 M179.8,740l-35.6-32.9
		 M138.5,757l41.3-16.9 M168.1,787.4l11.7-47.3 M168.1,787.4L138.5,757 M208.7,762.8L179.8,740 M208.7,762.8l-40.5,24.5
		 M201.9,815.7l-33.7-28.3 M208.7,762.8l-6.8,52.8 M247.3,788.8l-39.6-26.7 M247.3,788.8l-45.4,26.8 M201.9,815.7l40.7,28.3
		 M247.3,788.8l-4.7,55.1 M300.4,817.2c-1.5-0.7-57.8,26.7-57.8,26.7 M300.4,817.2l-53.1-28.4 M242.6,844l37.8,21.7 M300.4,817.2
		l-19.9,48.4 M310.2,802.5l27.8-44.7 M338,757.8l-78.7,16.3 M259.3,774.1l23.2-44.2 M282.5,729.9l55.5,27.9 M310.2,802.5l-50.8-28.4
		 M259.3,774.1l-41.9-29.7 M217.5,744.4l65-14.5 M283.8,730.7l-44.9-29 M217.3,744.1l21.6-42.4 M238.9,701.7l-49.2,19.4
		 M189.7,721.1l19.3-41.7 M238.9,701.7l-29.2-22.6 M217.5,744.4l-27.8-23.3 M189.7,721.1l-31.8-30.8 M157.9,690.3l51.1-10.9
		 M209.3,679.3l-33.5-30.9 M157.9,690.3l18.6-42.4 M176.5,647.9L130.1,659 M130.1,659l17.2-41.2 M147.3,617.9l28.3,30.3
		 M157.9,690.3L130.1,659 M130.1,659l-27.3-37 M102.8,622l44.3-4.5 M147.3,617.9l-31.4-39.7 M115.9,578.2l-12.6,43.6 M115.9,578.2
		l-40.7,3.2 M80.7,529l-5.4,52.4 M80.7,529l35.2,49.2 M103,621.9l-27.8-40.5 M349.4,741.6l41.7-43 M391.1,698.7L298,713 M298,713
		l34.1-42.4 M256.3,683.8l76.2-13.2 M256.3,683.8l35.9-37.6 M292.2,646.2l-69.9,8.9 M255.1,618.8l-32.9,36.3 M255.1,618.8l-68.8,0.2
		 M186.4,619.1l36.4-28.4 M222.8,590.6l-62-1.7 M183.3,550l-22.5,39 M183.3,550l-54.7-8.8 M128.6,541.2l32.2,47.7 M160.8,588.9
		l25.6,30.1 M186.4,619.1l35.9,36.1 M222.3,655.2l34.1,28.7 M256.3,683.8L298,713 M349.4,741.6l-50.9-28.3 M391.1,698.7l-59-28.1
		 M292.2,646.2l39.9,24.4 M255.1,618.8l37,27.4 M222.8,590.6l32.4,28.2 M183.3,550l39.5,40.7 M385.8,776.7l-36.4-35.1 M259.9,923
		l15.9-44.5 M259.9,923l-43.5-30.8 M275.7,878.5l-59.3,13.7 M275.7,878.5l-44.9-23.8 M216.4,892.2l14.2-37.7 M230.6,854.5l-48.9,9.3
		 M194.1,830.2l-12.3,33.6 M150,830.8l44-0.6 M150,830.8l9.5-27.2 M159.6,803.6L124,798 M129.3,775.9L124,798 M129.3,775.9
		l-25.1-6.6 M104.3,769.3l-12.4-34.4 M91.9,734.9l37.5,41 M159.6,803.6l-30.2-27.7 M194.1,830.2l-34.5-26.5 M194.1,830.2l36.5,24.4
		 M216.4,892.2l-34.7-28.4 M150,830.8l31.7,33 M150,830.8L124,798 M104.3,769.3L124,798 M385.8,776.7L338,757.8 M338,757.8
		l11.4-16.2 M310.2,802.5l37.3,33.3 M347.4,835.8l-47.1-18.6 M310.2,802.5l-9.8,14.7 M280.4,865.7l49,16.3 M329.4,882l-53.7-3.5
		 M280.4,865.7l-4.7,12.8 M259.9,923l57.7,28.9 M317.6,951.9l11.8-70 M329.4,882l-69.6,41 M347.4,835.8l-67,29.8 M329.4,882l18-46.1
		 M347.4,835.8l37.6-59.8 M385.1,776l-74.9,26.5 M385.1,776l55.5-59.8 M391.1,698.7l49.4,17.5 M440.6,716.2l-91.2,25.5 M440.6,716.2
		l36.4,9.2 M477,725.3l-38.1,76.8 M438.8,802.1l-53-25.3 M419.5,860.2l19.3-58.1 M419.5,860.2l-72.1-24.4 M404.2,920.3l15.3-60.1
		 M329.4,882l74.8,38.3 M404.2,920.3l-3.6,62.2 M317.6,951.9l82.9,30.6 M317.6,951.9l86.6-31.6 M329.7,882.1l90.6-22.3 M347.4,835.8
		l91.4-33.8 M385.1,776l91.9-50.7 M404.2,920.3l71.6,23.3 M400.5,982.5l56.2,11.6 M475.8,943.6l-19.1,50.6 M475.8,943.6l14.4-62.7
		 M490.2,880.9l-70.7-20.7 M506.2,828.7l-16,52.2 M506.2,828.7l-67.3-26.6 M524.6,780.2l-18.5,48.5 M524.6,780.2L477,725.3
		 M477,725.3l50-57 M527,668.3l61.7,55.6 M587.9,724.4l-63.2,55.8 M527,668.3l-54.9-42.2 M472.1,626.1l-40.7,40.1 M431.4,666.2
		l45.6,59.1 M431.4,666.2l-19.2-58 M412.1,608.2l28.7-13.3 M472.1,626.1l-31.3-31.2 M440.8,594.9l-19.4-28.8 M421.4,566.1l-9.3,42.1
		 M475.8,943.6l-75.2,38.9 M490.2,880.9l-86,39.4 M419.5,860.2l86.7-31.5 M524.6,780.2l-85.8,21.9 M477,725.3l111.8-1.4
		 M431.4,666.2l95.6,2.1 M412.1,608.2l59.9,17.9 M458,994.3l69,5.6 M527,999.9l23.1-72.6 M475.8,943.6l74.4-16.3 M550.1,927.3
		l-60-46.4 M549.9,926.8L574,856 M574,856l-67.8-27.3 M574,856l-49.4-75.8 M574,856l53.5-85.8 M627.5,770.1l-38.8-46.2 M524.6,780.2
		l102.9-10 M490.2,880.9L574,856 M458,994.3l92.1-67.1 M590.8,997.1l-63.7,2.8 M616.4,934.9l-25.7,62.2 M550.1,927.3l66.3,7.6
		 M616.4,934.9l16.2-38.6 M632.6,896.2L574,856 M632.6,896.2l45.9-44 M678.5,852.2l-51-82.1 M527,999.9l89.4-65 M632.6,896.2
		l-82.5,31 M574,856l104.5-3.7 M590.8,997.1l68.7-12 M659.5,985.1l21.4-44.1 M680.9,940.9l-64.4-6.1 M632.6,896.2l48.3,44.7
		 M680.9,940.9l25.9-13 M706.8,927.9l-28.3-75.7 M680.9,940.9l39,26.1 M719.9,967l-60.4,18.1 M706.8,927.9l13.1,39.1"/>
</g>
</svg>
