<?xml version="1.0" encoding="utf-8"?>
<!-- Generator: Adobe Illustrator 26.0.3, SVG Export Plug-In . SVG Version: 6.00 Build 0)  -->
<svg version="1.1" id="Layer_1" xmlns="http://www.w3.org/2000/svg" xmlns:xlink="http://www.w3.org/1999/xlink" x="0px" y="0px"
	 viewBox="0 0 587 609" style="enable-background:new 0 0 587 609;" xml:space="preserve">
<style type="text/css">
	.st0{fill:none;stroke:#181716;stroke-miterlimit:10;}
</style>
<path class="st0" d="M68.6-248.6"/>
<path class="st0" d="M151.9-269.7"/>
<g>
	<line class="st0" x1="392.9" y1="75.6" x2="373.7" y2="103.1"/>
	<line class="st0" x1="386.7" y1="36.1" x2="413.4" y2="52.8"/>
	<g>
		<path class="st0" d="M296.3,2.9"/>
		<line class="st0" x1="296.3" y1="2.9" x2="208.5" y2="14.3"/>
		<line class="st0" x1="169.1" y1="63.5" x2="206.7" y2="13.6"/>
		<line class="st0" x1="174.8" y1="69.5" x2="194.9" y2="94.2"/>
		<line class="st0" x1="277.8" y1="46.2" x2="174.8" y2="69.5"/>
		<line class="st0" x1="327.1" y1="11.2" x2="277.8" y2="46.2"/>
		<line class="st0" x1="217.7" y1="130.3" x2="201" y2="103"/>
		<path class="st0" d="M300.3,130.3"/>
		<path class="st0" d="M300.3,130.3"/>
		<line class="st0" x1="202" y1="102.4" x2="307.3" y2="78.1"/>
		<line class="st0" x1="386.7" y1="36.1" x2="307.3" y2="78.1"/>
		<line class="st0" x1="223.4" y1="140.9" x2="300.3" y2="130.3"/>
		<line class="st0" x1="392.9" y1="75.6" x2="300.3" y2="130.3"/>
		<line class="st0" x1="223.4" y1="140.9" x2="235.4" y2="175.4"/>
		<line class="st0" x1="172.9" y1="162.2" x2="223.4" y2="140.9"/>
		<line class="st0" x1="194.9" y1="94.2" x2="151.9" y2="130.3"/>
		<polyline class="st0" points="169.1,63.5 127.4,94.3 174.8,69.5 		"/>
		<line class="st0" x1="96.6" y1="84.3" x2="169.1" y2="63.5"/>
		<line class="st0" x1="194.9" y1="94.2" x2="127.4" y2="94.3"/>
		<line class="st0" x1="172.9" y1="162.2" x2="235.4" y2="175.4"/>
		<line class="st0" x1="198.9" y1="213.5" x2="172.9" y2="162.2"/>
		<line class="st0" x1="198.9" y1="213.5" x2="172.9" y2="162.2"/>
		<line class="st0" x1="131.8" y1="236.2" x2="134.2" y2="285.3"/>
		<line class="st0" x1="127.4" y1="94.3" x2="35.7" y2="162.2"/>
		<line class="st0" x1="68.6" y1="151.4" x2="151.9" y2="130.3"/>
		<line class="st0" x1="90.7" y1="170.4" x2="172.9" y2="162.2"/>
		<line class="st0" x1="110.2" y1="196.7" x2="198.9" y2="213.5"/>
		<line class="st0" x1="131.8" y1="236.2" x2="201.3" y2="262.6"/>
		<line class="st0" x1="246.8" y1="239.7" x2="299.8" y2="228"/>
		<line class="st0" x1="257.2" y1="205.9" x2="201.3" y2="262.6"/>
		<line class="st0" x1="245.7" y1="239.7" x2="293.5" y2="218.7"/>
		<line class="st0" x1="68.6" y1="151.4" x2="63.5" y2="216.8"/>
		<line class="st0" x1="63.5" y1="216.8" x2="131.8" y2="236.2"/>
		<line class="st0" x1="22.9" y1="192.7" x2="35.7" y2="162.2"/>
		<line class="st0" x1="28.5" y1="234.9" x2="74.7" y2="289.7"/>
		<line class="st0" x1="35.7" y1="162.2" x2="28.5" y2="234.9"/>
		<line class="st0" x1="63.5" y1="216.8" x2="74.3" y2="290.7"/>
		<line class="st0" x1="413.4" y1="52.8" x2="307.3" y2="78.1"/>
		<polyline class="st0" points="307.3,78.1 285.9,56.7 386.7,36.1 		"/>
		<line class="st0" x1="307.3" y1="78.1" x2="217.7" y2="130.3"/>
		<line class="st0" x1="201" y1="103" x2="285.9" y2="56.7"/>
		<line class="st0" x1="201" y1="103" x2="194.9" y2="94.2"/>
		<line class="st0" x1="151.9" y1="130.3" x2="201" y2="103"/>
		<line class="st0" x1="151.9" y1="130.3" x2="217.7" y2="130.3"/>
		<line class="st0" x1="217.7" y1="130.3" x2="172.9" y2="162.2"/>
		<line class="st0" x1="223.4" y1="140.9" x2="217.7" y2="130.3"/>
		<path class="st0" d="M217.7,130.3"/>
		<line class="st0" x1="235.4" y1="175.4" x2="198.9" y2="213.5"/>
		<line class="st0" x1="300.3" y1="130.3" x2="235.4" y2="175.4"/>
		<line class="st0" x1="223.4" y1="140.9" x2="296.3" y2="98.1"/>
		<line class="st0" x1="300.3" y1="130.3" x2="296.3" y2="98.1"/>
		<line class="st0" x1="296.3" y1="98.1" x2="300.3" y2="130.3"/>
		<line class="st0" x1="373.7" y1="103.1" x2="300.3" y2="130.3"/>
		<line class="st0" x1="296.3" y1="98.1" x2="392.9" y2="75.6"/>
		<path class="st0" d="M296.3,98.1"/>
		<line class="st0" x1="364.4" y1="24.3" x2="277.8" y2="46.2"/>
		<line class="st0" x1="327.1" y1="11.2" x2="364.4" y2="24.3"/>
		<line class="st0" x1="252.4" y1="28.2" x2="327.1" y2="11.2"/>
		<line class="st0" x1="277.8" y1="46.2" x2="252.4" y2="28.2"/>
		<line class="st0" x1="252.4" y1="28.2" x2="174.8" y2="69.5"/>
		<line class="st0" x1="194.9" y1="94.2" x2="277.8" y2="46.2"/>
		<line class="st0" x1="282.7" y1="0" x2="206.7" y2="13.6"/>
		<line class="st0" x1="296.3" y1="2.9" x2="282.7" y2="0"/>
		<line class="st0" x1="233.4" y1="24.3" x2="296.3" y2="2.9"/>
		<line class="st0" x1="206.7" y1="13.6" x2="135.5" y2="51.9"/>
		<line class="st0" x1="233.4" y1="24.3" x2="206.7" y2="13.6"/>
		<line class="st0" x1="169.1" y1="63.5" x2="233.4" y2="24.3"/>
		<line class="st0" x1="135.5" y1="51.9" x2="169.1" y2="63.5"/>
		<line class="st0" x1="174.8" y1="69.5" x2="169.1" y2="63.5"/>
		<line class="st0" x1="96.6" y1="84.3" x2="135.5" y2="51.9"/>
		<line class="st0" x1="127.4" y1="94.3" x2="96.6" y2="84.3"/>
		<line class="st0" x1="151.9" y1="130.3" x2="127.4" y2="94.3"/>
		<line class="st0" x1="172.9" y1="162.2" x2="151.9" y2="130.3"/>
		<line class="st0" x1="96.6" y1="84.3" x2="35.7" y2="162.2"/>
		<line class="st0" x1="68.6" y1="151.4" x2="127.4" y2="94.3"/>
		<line class="st0" x1="151.9" y1="130.3" x2="90.7" y2="170.4"/>
		<path class="st0" d="M172.9,162.2"/>
		<line class="st0" x1="110.2" y1="196.7" x2="172.9" y2="162.2"/>
		<line class="st0" x1="198.9" y1="213.5" x2="131.8" y2="236.2"/>
		<line class="st0" x1="198.9" y1="213.5" x2="257.2" y2="205.9"/>
		<line class="st0" x1="246.8" y1="239.7" x2="201.3" y2="262.6"/>
		<path class="st0" d="M198.9,213.5"/>
		<line class="st0" x1="201.3" y1="262.6" x2="198.9" y2="213.5"/>
		<line class="st0" x1="257.2" y1="205.9" x2="246.8" y2="239.7"/>
		<line class="st0" x1="293.5" y1="218.7" x2="257.2" y2="205.9"/>
		<line class="st0" x1="299.8" y1="228" x2="293.5" y2="218.7"/>
		<line class="st0" x1="131.8" y1="236.9" x2="110.2" y2="196.7"/>
		<line class="st0" x1="90.7" y1="170.4" x2="110.2" y2="196.7"/>
		<line class="st0" x1="90.7" y1="170.4" x2="68.6" y2="151.4"/>
		<line class="st0" x1="68.6" y1="151.4" x2="35.7" y2="162.2"/>
		<line class="st0" x1="63.5" y1="216.8" x2="90.7" y2="170.4"/>
		<line class="st0" x1="110.2" y1="196.7" x2="63.5" y2="216.8"/>
		<line class="st0" x1="134.2" y1="285.3" x2="201.3" y2="262.6"/>
		<line class="st0" x1="134.2" y1="285.3" x2="63.5" y2="216.8"/>
		<line class="st0" x1="74.7" y1="289.7" x2="134.2" y2="285.3"/>
		<line class="st0" x1="63.5" y1="216.8" x2="28.5" y2="234.9"/>
		<line class="st0" x1="0.7" y1="280.9" x2="74.7" y2="289.7"/>
		<line class="st0" x1="0.7" y1="280.9" x2="28.5" y2="234.9"/>
		<line class="st0" x1="3.7" y1="256.9" x2="0.7" y2="280.9"/>
		<line class="st0" x1="22.9" y1="192.7" x2="3.7" y2="256.9"/>
		<line class="st0" x1="22.9" y1="192.7" x2="0.7" y2="280.9"/>
		<line class="st0" x1="35.7" y1="162.2" x2="63.5" y2="216.8"/>
		<line class="st0" x1="28.5" y1="234.9" x2="22.9" y2="192.7"/>
	</g>
</g>
<g>
	<line class="st0" x1="429.3" y1="489.2" x2="416.5" y2="458.2"/>
	<line class="st0" x1="465.8" y1="505.4" x2="437.3" y2="518.8"/>
	<g>
		<path class="st0" d="M542.6,447.3"/>
		<line class="st0" x1="542.6" y1="447.3" x2="580.6" y2="367.3"/>
		<line class="st0" x1="560.6" y1="307.6" x2="582.2" y2="366.2"/>
		<line class="st0" x1="552.4" y1="309.1" x2="520.7" y2="312.6"/>
		<line class="st0" x1="516.3" y1="408.4" x2="552.4" y2="309.1"/>
		<line class="st0" x1="519" y1="468.7" x2="516.3" y2="408.4"/>
		<line class="st0" x1="478" y1="312.3" x2="510.1" y2="313"/>
		<path class="st0" d="M433.3,381.7"/>
		<path class="st0" d="M433.3,381.7"/>
		<line class="st0" x1="510" y1="314.2" x2="473.5" y2="415.9"/>
		<line class="st0" x1="465.8" y1="505.4" x2="473.5" y2="415.9"/>
		<line class="st0" x1="466.1" y1="311.3" x2="433.3" y2="381.7"/>
		<line class="st0" x1="429.3" y1="489.2" x2="433.3" y2="381.7"/>
		<line class="st0" x1="466.1" y1="311.3" x2="430.5" y2="302.7"/>
		<line class="st0" x1="475.5" y1="257.3" x2="466.1" y2="311.3"/>
		<line class="st0" x1="520.7" y1="312.6" x2="513.7" y2="256.9"/>
		<polyline class="st0" points="560.6,307.6 557.2,255.9 552.4,309.1 		"/>
		<line class="st0" x1="582.3" y1="235.3" x2="560.6" y2="307.6"/>
		<line class="st0" x1="520.7" y1="312.6" x2="557.2" y2="255.9"/>
		<line class="st0" x1="475.5" y1="257.3" x2="430.5" y2="302.7"/>
		<line class="st0" x1="418.3" y1="251.5" x2="475.5" y2="257.3"/>
		<line class="st0" x1="418.3" y1="251.5" x2="475.5" y2="257.3"/>
		<line class="st0" x1="435.5" y1="182.7" x2="392.9" y2="158.2"/>
		<line class="st0" x1="557.2" y1="255.9" x2="549.7" y2="142"/>
		<line class="st0" x1="541" y1="175.5" x2="513.7" y2="256.9"/>
		<line class="st0" x1="513.1" y1="183.8" x2="475.5" y2="257.3"/>
		<line class="st0" x1="480.4" y1="186" x2="418.3" y2="251.5"/>
		<line class="st0" x1="435.5" y1="182.7" x2="375.7" y2="226.9"/>
		<line class="st0" x1="370.3" y1="277.6" x2="351.5" y2="328.4"/>
		<line class="st0" x1="393.1" y1="304.6" x2="375.7" y2="226.9"/>
		<line class="st0" x1="370.9" y1="276.6" x2="362.7" y2="328.2"/>
		<line class="st0" x1="541" y1="175.5" x2="488.8" y2="135.8"/>
		<line class="st0" x1="488.8" y1="135.8" x2="435.5" y2="182.7"/>
		<line class="st0" x1="531" y1="114.7" x2="549.7" y2="142"/>
		<line class="st0" x1="492.5" y1="96.6" x2="421.4" y2="105.8"/>
		<line class="st0" x1="549.7" y1="142" x2="492.5" y2="96.6"/>
		<line class="st0" x1="488.8" y1="135.8" x2="420.7" y2="104.9"/>
		<line class="st0" x1="437.3" y1="518.8" x2="473.5" y2="415.9"/>
		<polyline class="st0" points="473.5,415.9 503,409.5 465.8,505.4 		"/>
		<line class="st0" x1="473.5" y1="415.9" x2="478" y2="312.3"/>
		<line class="st0" x1="510.1" y1="313" x2="503" y2="409.5"/>
		<line class="st0" x1="510.1" y1="313" x2="520.7" y2="312.6"/>
		<line class="st0" x1="513.7" y1="256.9" x2="510.1" y2="313"/>
		<line class="st0" x1="513.7" y1="256.9" x2="478" y2="312.3"/>
		<line class="st0" x1="478" y1="312.3" x2="475.5" y2="257.3"/>
		<line class="st0" x1="466.1" y1="311.3" x2="478" y2="312.3"/>
		<path class="st0" d="M478,312.3"/>
		<line class="st0" x1="430.5" y1="302.7" x2="418.3" y2="251.5"/>
		<line class="st0" x1="433.3" y1="381.7" x2="430.5" y2="302.7"/>
		<line class="st0" x1="466.1" y1="311.3" x2="462.6" y2="395.8"/>
		<line class="st0" x1="433.3" y1="381.7" x2="462.6" y2="395.8"/>
		<line class="st0" x1="462.6" y1="395.8" x2="433.3" y2="381.7"/>
		<line class="st0" x1="416.5" y1="458.2" x2="433.3" y2="381.7"/>
		<line class="st0" x1="462.6" y1="395.8" x2="429.3" y2="489.2"/>
		<path class="st0" d="M462.6,395.8"/>
		<line class="st0" x1="487.8" y1="493" x2="516.3" y2="408.4"/>
		<line class="st0" x1="519" y1="468.7" x2="487.8" y2="493"/>
		<line class="st0" x1="545.1" y1="396.7" x2="519" y2="468.7"/>
		<line class="st0" x1="516.3" y1="408.4" x2="545.1" y2="396.7"/>
		<line class="st0" x1="545.1" y1="396.7" x2="552.4" y2="309.1"/>
		<line class="st0" x1="520.7" y1="312.6" x2="516.3" y2="408.4"/>
		<line class="st0" x1="552.5" y1="437.4" x2="582.2" y2="366.2"/>
		<line class="st0" x1="542.6" y1="447.3" x2="552.5" y2="437.4"/>
		<line class="st0" x1="558.7" y1="382.8" x2="542.6" y2="447.3"/>
		<line class="st0" x1="582.2" y1="366.2" x2="588.4" y2="285.5"/>
		<line class="st0" x1="558.7" y1="382.8" x2="582.2" y2="366.2"/>
		<line class="st0" x1="560.6" y1="307.6" x2="558.7" y2="382.8"/>
		<line class="st0" x1="588.4" y1="285.5" x2="560.6" y2="307.6"/>
		<line class="st0" x1="552.4" y1="309.1" x2="560.6" y2="307.6"/>
		<line class="st0" x1="582.3" y1="235.3" x2="588.4" y2="285.5"/>
		<line class="st0" x1="557.2" y1="255.9" x2="582.3" y2="235.3"/>
		<line class="st0" x1="513.7" y1="256.9" x2="557.2" y2="255.9"/>
		<line class="st0" x1="475.5" y1="257.3" x2="513.7" y2="256.9"/>
		<line class="st0" x1="582.3" y1="235.3" x2="549.7" y2="142"/>
		<line class="st0" x1="541" y1="175.5" x2="557.2" y2="255.9"/>
		<line class="st0" x1="513.7" y1="256.9" x2="513.1" y2="183.8"/>
		<path class="st0" d="M475.5,257.3"/>
		<line class="st0" x1="480.4" y1="186" x2="475.5" y2="257.3"/>
		<line class="st0" x1="418.3" y1="251.5" x2="435.5" y2="182.7"/>
		<line class="st0" x1="418.3" y1="251.5" x2="393.1" y2="304.6"/>
		<line class="st0" x1="370.3" y1="277.6" x2="375.7" y2="226.9"/>
		<path class="st0" d="M418.3,251.5"/>
		<line class="st0" x1="375.7" y1="226.9" x2="418.3" y2="251.5"/>
		<line class="st0" x1="393.1" y1="304.6" x2="370.3" y2="277.6"/>
		<line class="st0" x1="362.7" y1="328.2" x2="393.1" y2="304.6"/>
		<line class="st0" x1="351.5" y1="328.4" x2="362.7" y2="328.2"/>
		<line class="st0" x1="434.9" y1="182.4" x2="480.4" y2="186"/>
		<line class="st0" x1="513.1" y1="183.8" x2="480.4" y2="186"/>
		<line class="st0" x1="513.1" y1="183.8" x2="541" y2="175.5"/>
		<line class="st0" x1="541" y1="175.5" x2="549.7" y2="142"/>
		<line class="st0" x1="488.8" y1="135.8" x2="513.1" y2="183.8"/>
		<line class="st0" x1="480.4" y1="186" x2="488.8" y2="135.8"/>
		<line class="st0" x1="392.9" y1="158.2" x2="375.7" y2="226.9"/>
		<line class="st0" x1="392.9" y1="158.2" x2="488.8" y2="135.8"/>
		<line class="st0" x1="421.4" y1="105.8" x2="392.9" y2="158.2"/>
		<line class="st0" x1="488.8" y1="135.8" x2="492.5" y2="96.6"/>
		<line class="st0" x1="468.8" y1="48.3" x2="421.4" y2="105.8"/>
		<line class="st0" x1="468.8" y1="48.3" x2="492.5" y2="96.6"/>
		<line class="st0" x1="487.4" y1="63.8" x2="468.8" y2="48.3"/>
		<line class="st0" x1="531" y1="114.7" x2="487.4" y2="63.8"/>
		<line class="st0" x1="531" y1="114.7" x2="468.8" y2="48.3"/>
		<line class="st0" x1="549.7" y1="142" x2="488.8" y2="135.8"/>
		<line class="st0" x1="492.5" y1="96.6" x2="531" y2="114.7"/>
	</g>
</g>
<g>
	<line class="st0" x1="67.9" y1="330.6" x2="101" y2="335.4"/>
	<line class="st0" x1="35.3" y1="353.8" x2="38.3" y2="322.5"/>
	<g>
		<path class="st0" d="M46.3,449.5"/>
		<line class="st0" x1="46.3" y1="449.5" x2="95.9" y2="522.9"/>
		<line class="st0" x1="157.5" y1="536.1" x2="96" y2="524.8"/>
		<line class="st0" x1="160.3" y1="528.2" x2="173.4" y2="499.2"/>
		<line class="st0" x1="93.2" y1="446.6" x2="160.3" y2="528.2"/>
		<line class="st0" x1="39.9" y1="418.3" x2="93.2" y2="446.6"/>
		<line class="st0" x1="195.4" y1="462.6" x2="178.5" y2="489.8"/>
		<path class="st0" d="M158.3,388.8"/>
		<path class="st0" d="M158.3,388.8"/>
		<line class="st0" x1="177.5" y1="489.1" x2="108.5" y2="405.9"/>
		<line class="st0" x1="35.3" y1="353.8" x2="108.5" y2="405.9"/>
		<line class="st0" x1="202.3" y1="452.8" x2="158.3" y2="388.8"/>
		<line class="st0" x1="67.9" y1="330.6" x2="158.3" y2="388.8"/>
		<line class="st0" x1="202.3" y1="452.8" x2="227.8" y2="426.6"/>
		<line class="st0" x1="244" y1="488.3" x2="202.3" y2="452.8"/>
		<line class="st0" x1="173.4" y1="499.2" x2="225" y2="521.4"/>
		<polyline class="st0" points="157.5,536.1 203.7,559.4 160.3,528.2 		"/>
		<line class="st0" x1="208.6" y1="591.5" x2="157.5" y2="536.1"/>
		<line class="st0" x1="173.4" y1="499.2" x2="203.7" y2="559.4"/>
		<line class="st0" x1="244" y1="488.3" x2="227.8" y2="426.6"/>
		<line class="st0" x1="278.1" y1="442" x2="244" y2="488.3"/>
		<line class="st0" x1="278.1" y1="442" x2="244" y2="488.3"/>
		<line class="st0" x1="328.6" y1="491.8" x2="371.4" y2="467.6"/>
		<line class="st0" x1="203.7" y1="559.4" x2="305.6" y2="610.9"/>
		<line class="st0" x1="281.1" y1="586.4" x2="225" y2="521.4"/>
		<line class="st0" x1="288.2" y1="558.1" x2="244" y2="488.3"/>
		<line class="st0" x1="302.9" y1="528.8" x2="278.1" y2="442"/>
		<line class="st0" x1="328.6" y1="491.8" x2="321" y2="417.8"/>
		<line class="st0" x1="280.1" y1="387.4" x2="245.8" y2="345.4"/>
		<line class="st0" x1="245.2" y1="393.3" x2="321" y2="417.8"/>
		<line class="st0" x1="280.6" y1="388.4" x2="240.4" y2="355.2"/>
		<line class="st0" x1="281.1" y1="586.4" x2="341.8" y2="561.6"/>
		<line class="st0" x1="341.8" y1="561.6" x2="328.6" y2="491.8"/>
		<line class="st0" x1="338.6" y1="608.7" x2="305.6" y2="610.9"/>
		<line class="st0" x1="373.8" y1="584.7" x2="402" y2="518.8"/>
		<line class="st0" x1="305.6" y1="610.9" x2="373.8" y2="584.7"/>
		<line class="st0" x1="341.8" y1="561.6" x2="403.1" y2="518.7"/>
		<line class="st0" x1="38.3" y1="322.5" x2="108.5" y2="405.9"/>
		<polyline class="st0" points="108.5,405.9 99,434.6 35.3,353.8 		"/>
		<line class="st0" x1="108.5" y1="405.9" x2="195.4" y2="462.6"/>
		<line class="st0" x1="178.5" y1="489.8" x2="99" y2="434.6"/>
		<line class="st0" x1="178.5" y1="489.8" x2="173.4" y2="499.2"/>
		<line class="st0" x1="225" y1="521.4" x2="178.5" y2="489.8"/>
		<line class="st0" x1="225" y1="521.4" x2="195.4" y2="462.6"/>
		<line class="st0" x1="195.4" y1="462.6" x2="244" y2="488.3"/>
		<line class="st0" x1="202.3" y1="452.8" x2="195.4" y2="462.6"/>
		<path class="st0" d="M195.4,462.6"/>
		<line class="st0" x1="227.8" y1="426.6" x2="278.1" y2="442"/>
		<line class="st0" x1="158.3" y1="388.8" x2="227.8" y2="426.6"/>
		<line class="st0" x1="202.3" y1="452.8" x2="131.3" y2="406.8"/>
		<line class="st0" x1="158.3" y1="388.8" x2="131.3" y2="406.8"/>
		<line class="st0" x1="131.3" y1="406.8" x2="158.3" y2="388.8"/>
		<line class="st0" x1="101" y1="335.4" x2="158.3" y2="388.8"/>
		<line class="st0" x1="131.3" y1="406.8" x2="67.9" y2="330.6"/>
		<path class="st0" d="M131.3,406.8"/>
		<line class="st0" x1="34.8" y1="379.1" x2="93.2" y2="446.6"/>
		<line class="st0" x1="39.9" y1="418.3" x2="34.8" y2="379.1"/>
		<line class="st0" x1="88.6" y1="477.4" x2="39.9" y2="418.3"/>
		<line class="st0" x1="93.2" y1="446.6" x2="88.6" y2="477.4"/>
		<line class="st0" x1="88.6" y1="477.4" x2="160.3" y2="528.2"/>
		<line class="st0" x1="173.4" y1="499.2" x2="93.2" y2="446.6"/>
		<line class="st0" x1="49.8" y1="463" x2="96" y2="524.8"/>
		<line class="st0" x1="46.3" y1="449.5" x2="49.8" y2="463"/>
		<line class="st0" x1="93.6" y1="496.2" x2="46.3" y2="449.5"/>
		<line class="st0" x1="96" y1="524.8" x2="162.3" y2="571.3"/>
		<line class="st0" x1="93.6" y1="496.2" x2="96" y2="524.8"/>
		<line class="st0" x1="157.5" y1="536.1" x2="93.6" y2="496.2"/>
		<line class="st0" x1="162.3" y1="571.3" x2="157.5" y2="536.1"/>
		<line class="st0" x1="160.3" y1="528.2" x2="157.5" y2="536.1"/>
		<line class="st0" x1="208.6" y1="591.5" x2="162.3" y2="571.3"/>
		<line class="st0" x1="203.7" y1="559.4" x2="208.6" y2="591.5"/>
		<line class="st0" x1="225" y1="521.4" x2="203.7" y2="559.4"/>
		<line class="st0" x1="244" y1="488.3" x2="225" y2="521.4"/>
		<line class="st0" x1="208.6" y1="591.5" x2="305.6" y2="610.9"/>
		<line class="st0" x1="281.1" y1="586.4" x2="203.7" y2="559.4"/>
		<line class="st0" x1="225" y1="521.4" x2="288.2" y2="558.1"/>
		<path class="st0" d="M244,488.3"/>
		<line class="st0" x1="302.9" y1="528.8" x2="244" y2="488.3"/>
		<line class="st0" x1="278.1" y1="442" x2="328.6" y2="491.8"/>
		<line class="st0" x1="278.1" y1="442" x2="245.2" y2="393.3"/>
		<line class="st0" x1="280.1" y1="387.4" x2="321" y2="417.8"/>
		<path class="st0" d="M278.1,442"/>
		<line class="st0" x1="321" y1="417.8" x2="278.1" y2="442"/>
		<line class="st0" x1="245.2" y1="393.3" x2="280.1" y2="387.4"/>
		<line class="st0" x1="240.4" y1="355.2" x2="245.2" y2="393.3"/>
		<line class="st0" x1="245.8" y1="345.4" x2="240.4" y2="355.2"/>
		<line class="st0" x1="329.2" y1="491.5" x2="302.9" y2="528.8"/>
		<line class="st0" x1="288.2" y1="558.1" x2="302.9" y2="528.8"/>
		<line class="st0" x1="288.2" y1="558.1" x2="281.1" y2="586.4"/>
		<line class="st0" x1="281.1" y1="586.4" x2="305.6" y2="610.9"/>
		<line class="st0" x1="341.8" y1="561.6" x2="288.2" y2="558.1"/>
		<line class="st0" x1="302.9" y1="528.8" x2="341.8" y2="561.6"/>
		<line class="st0" x1="371.4" y1="467.6" x2="321" y2="417.8"/>
		<line class="st0" x1="371.4" y1="467.6" x2="341.8" y2="561.6"/>
		<line class="st0" x1="402" y1="518.8" x2="371.4" y2="467.6"/>
		<line class="st0" x1="341.8" y1="561.6" x2="373.8" y2="584.7"/>
		<line class="st0" x1="427.4" y1="588.9" x2="402" y2="518.8"/>
		<line class="st0" x1="427.4" y1="588.9" x2="373.8" y2="584.7"/>
		<line class="st0" x1="404.6" y1="597" x2="427.4" y2="588.9"/>
		<line class="st0" x1="338.6" y1="608.7" x2="404.6" y2="597"/>
		<line class="st0" x1="338.6" y1="608.7" x2="427.4" y2="588.9"/>
		<line class="st0" x1="305.6" y1="610.9" x2="341.8" y2="561.6"/>
		<line class="st0" x1="373.8" y1="584.7" x2="338.6" y2="608.7"/>
	</g>
</g>
</svg>
