<?xml version="1.0" encoding="utf-8"?>
<!-- Generator: Adobe Illustrator 26.0.3, SVG Export Plug-In . SVG Version: 6.00 Build 0)  -->
<svg version="1.1" id="Layer_1" xmlns="http://www.w3.org/2000/svg" xmlns:xlink="http://www.w3.org/1999/xlink" x="0px" y="0px"
	 viewBox="0 0 587 609" style="enable-background:new 0 0 587 609;" xml:space="preserve">
<style type="text/css">
	.st0{fill:none;stroke:#181716;stroke-miterlimit:10;}
</style>
<path class="st0" d="M68.6-248.6"/>
<path class="st0" d="M151.9-269.7"/>
<path class="st0" d="M392.9,75.6l-19.1,27.5 M413.4,52.8l-26.6-16.7 M296.3,2.9 M296.3,2.9l-87.8,11.4 M169.1,63.5l37.6-49.9
	 M174.8,69.5l20.1,24.7 M174.8,69.5l103-23.4 M327.1,11.2l-49.3,34.9 M217.7,130.3L201,103 M300.3,130.3 M300.3,130.3 M202,102.4
	l105.3-24.3 M386.7,36.1l-79.4,41.9 M300.3,130.3l-76.9,10.6 M392.9,75.6l-92.6,54.7 M223.4,140.9l12,34.5 M172.9,162.2l50.5-21.3
	 M194.9,94.2l-43,36.1 M169.1,63.5l-41.6,30.8l47.3-24.7 M96.6,84.3l72.5-20.8 M194.9,94.2l-67.5,0 M172.9,162.2l62.5,13.2
	 M198.9,213.5l-26-51.3 M198.9,213.5l-26-51.3 M131.8,236.2l2.4,49.1 M127.4,94.3l-91.7,67.9 M68.6,151.4l83.3-21.1 M90.7,170.4
	l82.2-8.2 M110.2,196.7l88.7,16.8 M131.8,236.2l69.5,26.4 M246.8,239.7l52.9-11.8 M257.2,205.9l-55.9,56.7 M245.7,239.7l47.8-21
	 M68.6,151.4l-5.1,65.4 M63.5,216.8l68.3,19.4 M22.9,192.7l12.8-30.5 M28.5,234.9l46.2,54.8 M28.5,234.9l7.2-72.7 M63.5,216.8
	l10.8,74 M413.4,52.8l-106,25.2 M386.7,36.1L285.9,56.7l21.4,21.3 M307.3,78.1l-89.6,52.3 M201,103l84.9-46.2 M201,103l-6.1-8.7
	 M151.9,130.3L201,103 M151.9,130.3h65.8 M217.7,130.3l-44.8,31.9 M217.7,130.3l5.7,10.6 M217.7,130.3 M235.4,175.4l-36.5,38
	 M300.3,130.3l-64.9,45.1 M223.4,140.9l73-42.8 M300.3,130.3l-4-32.2 M296.3,98.1l4,32.2 M373.7,103.1l-73.5,27.2 M296.3,98.1
	l96.5-22.5 M296.3,98.1 M364.4,24.3l-86.5,21.8 M327.1,11.2l37.3,13.1 M252.4,28.2l74.6-17 M277.8,46.2l-25.4-18 M174.8,69.5
	l77.6-41.3 M194.9,94.2l82.9-48.1 M282.7,0l-76,13.6 M296.3,2.9L282.7,0 M233.4,24.3l63-21.4 M206.7,13.6l-71.2,38.4 M233.4,24.3
	l-26.7-10.7 M233.4,24.3l-64.3,39.2 M135.5,51.9l33.6,11.5 M174.8,69.5l-5.7-6.1 M96.6,84.3l38.9-32.3 M127.4,94.3l-30.9-10
	 M151.9,130.3l-24.4-36.1 M172.9,162.2l-21-31.9 M96.6,84.3l-60.8,77.9 M127.4,94.3l-58.8,57.1 M151.9,130.3l-61.2,40.1
	 M172.9,162.2 M110.2,196.7l62.7-34.5 M131.8,236.2l67.1-22.7 M198.9,213.5l58.3-7.6 M246.8,239.7l-45.5,22.9 M198.9,213.5
	 M201.3,262.6l-2.4-49.1 M257.2,205.9l-10.4,33.8 M257.2,205.9l36.3,12.8 M293.5,218.7l6.3,9.2 M131.8,236.9l-21.6-40.3 M90.7,170.4
	l19.5,26.3 M90.7,170.4l-22.1-19 M68.6,151.4l-32.9,10.8 M63.5,216.8l27.2-46.4 M110.2,196.7l-46.7,20.1 M201.3,262.6l-67.1,22.7
	 M63.5,216.8l70.7,68.6 M74.7,289.7l59.5-4.3 M28.5,234.9l35-18.1 M0.7,280.9l74.1,8.7 M0.7,280.9l27.8-46.1 M3.7,256.9l-3,24
	 M22.9,192.7L3.7,256.9 M22.9,192.7L0.7,280.9 M35.7,162.2l27.8,54.6 M22.9,192.7l5.6,42.2 M429.3,489.2l-12.8-30.9 M465.8,505.4
	l-28.5,13.4 M542.6,447.3 M542.6,447.3l38-80 M560.6,307.6l21.6,58.6 M552.4,309.1l-31.7,3.6 M516.3,408.4l36.1-99.3 M519,468.7
	l-2.7-60.3 M478,312.3l32.1,0.7 M433.3,381.7 M433.3,381.7 M510,314.2l-36.5,101.7 M473.5,415.9l-7.7,89.5 M466.1,311.3l-32.7,70.4
	 M429.3,489.2l4.1-107.5 M466.1,311.3l-35.5-8.6 M475.5,257.3l-9.4,54 M520.7,312.6l-7.1-55.7 M560.6,307.6l-3.4-51.7l-4.8,53.2
	 M560.6,307.6l21.7-72.2 M557.2,255.9l-36.5,56.8 M475.5,257.3l-44.9,45.4 M418.3,251.5l57.2,5.9 M418.3,251.5l57.2,5.9
	 M435.5,182.7l-42.6-24.6 M557.2,255.9L549.7,142 M541,175.5l-27.4,81.4 M513.1,183.8l-37.6,73.6 M480.4,186l-62.1,65.5
	 M435.5,182.7l-59.8,44.2 M351.5,328.4l18.8-50.9 M375.7,226.9l17.4,77.7 M370.9,276.6l-8.2,51.5 M541,175.5l-52.2-39.7
	 M488.8,135.8l-53.3,46.9 M531,114.7l18.7,27.3 M492.5,96.6l-71.1,9.2 M549.7,142l-57.2-45.4 M488.8,135.8l-68.1-30.9 M437.3,518.8
	l36.1-102.8 M465.8,505.4l37.2-95.9l-29.5,6.5 M473.5,415.9l4.6-103.7 M510.1,313l-7.1,96.4 M510.1,313l10.6-0.4 M513.7,256.9
	l-3.6,56.1 M513.7,256.9L478,312.3 M478,312.3l-2.5-54.9 M466.1,311.3l12,1 M478,312.3 M418.3,251.5l12.3,51.2 M433.3,381.7l-2.8-79
	 M466.1,311.3l-3.5,84.5 M433.3,381.7l29.2,14.1 M462.6,395.8l-29.2-14.1 M416.5,458.2l16.9-76.5 M462.6,395.8l-33.3,93.3
	 M462.6,395.8 M487.8,493l28.5-84.6 M519,468.7L487.8,493 M545.1,396.7l-26.1,72 M516.3,408.4l28.8-11.6 M552.4,309.1l-7.3,87.7
	 M520.7,312.6l-4.4,95.7 M582.2,366.2l-29.7,71.2 M542.6,447.3l9.9-9.9 M558.7,382.8l-16.1,64.5 M582.2,366.2l6.3-80.7 M582.2,366.2
	l-23.5,16.6 M560.6,307.6l-1.9,75.3 M588.4,285.5l-27.9,22 M552.4,309.1l8.2-1.5 M582.3,235.3l6.1,50.2 M557.2,255.9l25.1-20.6
	 M513.7,256.9l43.6-1 M475.5,257.3l38.2-0.4 M549.7,142l32.6,93.3 M541,175.5l16.2,80.4 M513.7,256.9l-0.6-73.1 M475.5,257.3
	 M480.4,186l-4.9,71.3 M435.5,182.7l-17.2,68.7 M418.3,251.5l-25.2,53.2 M370.3,277.6l5.4-50.7 M418.3,251.5 M418.3,251.5
	l-42.6-24.6 M393.1,304.6l-22.8-27.1 M362.7,328.2l30.4-23.5 M362.7,328.2l-11.1,0.3 M434.9,182.4l45.6,3.6 M513.1,183.8l-32.7,2.2
	 M513.1,183.8l27.9-8.3 M541,175.5l8.7-33.5 M488.8,135.8l24.3,47.9 M488.8,135.8l-8.4,50.2 M392.9,158.2l-17.2,68.7 M392.9,158.2
	l95.9-22.3 M421.4,105.8l-28.5,52.4 M492.5,96.6l-3.7,39.3 M421.4,105.8l47.4-57.5 M468.8,48.3l23.7,48.3 M487.4,63.8l-18.5-15.5
	 M531,114.7l-43.7-50.9 M468.8,48.3l62.2,66.5 M549.7,142l-60.9-6.1 M492.5,96.6l38.5,18.1 M67.9,330.6l33.1,4.7 M35.3,353.8l3-31.3
	 M46.3,449.5 M46.3,449.5l49.6,73.4 M157.5,536.1L96,524.8 M160.3,528.2l13-29.1 M160.3,528.2l-67.1-81.6 M39.9,418.3l53.3,28.3
	 M195.4,462.6l-16.9,27.2 M158.3,388.8 M158.3,388.8 M177.5,489.1l-69-83.2 M35.3,353.8l73.1,52.1 M202.3,452.8l-44-64 M67.9,330.6
	l90.4,58.2 M202.3,452.8l25.5-26.2 M244,488.3l-41.7-35.6 M173.4,499.2l51.6,22.3 M157.5,536.1l46.2,23.4l-43.3-31.2 M208.6,591.5
	l-51.2-55.5 M173.4,499.2l30.3,60.3 M244,488.3l-16.2-61.8 M278.1,442L244,488.3 M278.1,442L244,488.3 M328.6,491.8l42.8-24.2
	 M203.7,559.4l101.9,51.5 M281.1,586.4L225,521.4 M288.2,558.1L244,488.3 M278.1,442l24.8,86.8 M328.6,491.8l-7.6-74 M280.1,387.4
	l-34.3-42 M321,417.8l-75.8-24.5 M280.6,388.4l-40.2-33.3 M281.1,586.4l60.7-24.8 M328.6,491.8l13.3,69.7 M338.6,608.7l-33,2.2
	 M373.8,584.7l28.2-65.9 M305.6,610.9l68.2-26.2 M341.8,561.6l61.3-42.9 M38.3,322.5l70.1,83.4 M35.3,353.8L99,434.6l9.4-28.7
	 M195.4,462.6l-86.9-56.6 M178.5,489.8L99,434.6 M178.5,489.8l-5.1,9.4 M178.5,489.8l46.5,31.6 M225,521.4l-29.6-58.8 M195.4,462.6
	l48.6,25.7 M195.4,462.6l6.9-9.8 M195.4,462.6 M227.8,426.6l50.4,15.5 M227.8,426.6l-69.5-37.8 M202.3,452.8l-71-46 M158.3,388.8
	l-27,18 M131.3,406.8l27-18 M101,335.4l57.3,53.4 M131.3,406.8l-63.4-76.2 M131.3,406.8 M34.8,379.1l58.4,67.5 M39.9,418.3
	l-5.1-39.2 M39.9,418.3l48.7,59.1 M93.2,446.6l-4.6,30.7 M88.6,477.4l71.8,50.8 M93.2,446.6l80.2,52.5 M49.8,463L96,524.8
	 M46.3,449.5l3.5,13.5 M93.6,496.2l-47.4-46.7 M162.3,571.3L96,524.8 M93.6,496.2l2.4,28.7 M157.5,536.1l-63.9-39.9 M157.5,536.1
	l4.8,35.2 M160.3,528.2l-2.9,7.8 M208.6,591.5l-46.3-20.3 M203.7,559.4l4.9,32.1 M225,521.4l-21.3,38 M244,488.3l-19,33.1
	 M208.6,591.5l96.9,19.4 M281.1,586.4l-77.5-26.9 M225,521.4l63.3,36.7 M244,488.3 M302.9,528.8L244,488.3 M278.1,442l50.4,49.8
	 M245.2,393.3l33,48.7 M280.1,387.4l40.9,30.4 M278.1,442 M321,417.8L278.1,442 M245.2,393.3l34.9-5.9 M240.4,355.2l4.8,38.2
	 M245.8,345.4l-5.4,9.7 M329.2,491.5l-26.3,37.4 M288.2,558.1l14.7-29.3 M288.2,558.1l-7.1,28.3 M281.1,586.4l24.4,24.5
	 M341.8,561.6l-53.6-3.5 M302.9,528.8l38.9,32.7 M371.4,467.6L321,417.8 M341.8,561.6l29.5-93.9 M402,518.8l-30.6-51.2 M341.8,561.6
	l31.9,23.2 M427.4,588.9L402,518.8 M427.4,588.9l-53.7-4.2 M404.6,597l22.8-8.1 M338.6,608.7l66.1-11.7 M338.6,608.7l88.8-19.8
	 M305.6,610.9l36.3-49.3 M373.8,584.7l-35.2,23.9"/>
</svg>
